<?xml version="1.0" standalone="no"?>
<!DOCTYPE svg PUBLIC "-//W3C//DTD SVG 1.1//EN" "http://www.w3.org/Graphics/SVG/1.1/DTD/svg11.dtd" >
<svg>
<metadata>
Created by FontForge 20090914 at Thu May 10 09:19:31 2012
 By www-data
Copyright (c) 2010 by Type the Font. All rights reserved.
</metadata>
<defs>
<font id="Sertig" horiz-adv-x="444" >
  <font-face 
    font-family="Sertig"
    font-weight="400"
    font-stretch="normal"
    units-per-em="1000"
    panose-1="2 11 3 6 3 4 3 2 2 4"
    ascent="726"
    descent="-274"
    x-height="518"
    cap-height="716"
    bbox="-29 -210.027 1006 919"
    underline-thickness="50"
    underline-position="-50"
    unicode-range="U+0020-U+2122"
  />
<missing-glyph horiz-adv-x="364" 
d="M33 0v666h265v-666h-265zM66 33h199v600h-199v-600z" />
    <glyph glyph-name=".notdef" horiz-adv-x="364" 
d="M33 0v666h265v-666h-265zM66 33h199v600h-199v-600z" />
    <glyph glyph-name="space" unicode=" " horiz-adv-x="222" 
 />
    <glyph glyph-name="exclam" unicode="!" horiz-adv-x="222" 
d="M71 714h81l-7 -537h-66zM70 84h84l-1 -84h-83v84z" />
    <glyph glyph-name="quotedbl" unicode="&#x22;" horiz-adv-x="309" 
d="M185 716h69v-248h-49l-20 133v115zM55 716h69v-248h-47l-22 133v115z" />
    <glyph glyph-name="numbersign" unicode="#" 
d="M179 697l51 -1l-41 -199h114l43 202l51 -1l-42 -202h67l-3 -55l-75 1l-38 -190l116 -1l-3 -46h-123l-41 -205l-51 1l41 206l-115 -1l-42 -206l-52 1l41 206l-57 -1l2 46l66 1l38 191l-107 -1l3 55h115zM292 443h-114l-38 -190h114z" />
    <glyph glyph-name="dollar" unicode="$" 
d="M204 773l45.001 0.00488281v-48c14 -2.66699 26.667 -6.66699 38 -12s23.5 -13.833 36.5 -25.5s24.333 -29.167 34 -52.5s17.167 -51.333 22.5 -84h-60c-8.66699 77.333 -32.334 123 -71.001 137v-303c1.33301 -0.666992 3.16602 -1.83398 5.49902 -3.50098
s4.16602 -2.83398 5.49902 -3.50098c17.333 -12 30.166 -21.167 38.499 -27.5s20.166 -16.666 35.499 -30.999s26.833 -27.833 34.5 -40.5s14.667 -28.834 21 -48.501s9.5 -40.167 9.5 -61.5c0 -58 -19 -104.333 -57 -139c-7.33301 -6.66699 -14.333 -12.167 -21 -16.5
s-13.834 -7.5 -21.501 -9.5l-17 -4.5c-3.66699 -1 -10 -1.83301 -19 -2.5s-14.167 -1 -15.5 -1l1 -48l-46 -1v49c-13.333 1.33301 -24 2.66602 -32 3.99902s-21 6 -39 14s-32.667 18.333 -44 31s-22.333 31.834 -33 57.501s-17 56.167 -19 91.5h61
c1.33301 -20 3.33301 -36 6 -48s7.33398 -26.5 14.001 -43.5s17.334 -30.667 32.001 -41s33 -17.833 55 -22.5v308c-25.333 16 -44.666 29.167 -57.999 39.5s-28.666 24.333 -45.999 42s-29.833 37.5 -37.5 59.5s-11.5 47 -11.5 75c0 15.333 1.83301 30.666 5.5 45.999
s10.334 32.166 20.001 50.499s25.5 33.666 47.5 45.999s48.667 19.5 80 21.5v46zM204.001 416.005v275.001c-20.667 -3.33301 -38 -10.333 -52 -21s-24 -23.334 -30 -38.001s-10 -27.334 -12 -38.001s-3 -20.667 -3 -30c0 -25.333 6.33301 -48.833 19 -70.5
s24.667 -37.167 36 -46.5s25.333 -19.666 42 -30.999zM249.001 324.006v-285.002c18 2.66699 36.333 13.334 55 32.001c24.667 24.667 37 56.334 37 95.001c0 24.667 -4.5 47 -13.5 67s-19.167 36.167 -30.5 48.5s-27.333 26.5 -48 42.5z" />
    <glyph glyph-name="percent" unicode="%" horiz-adv-x="778" 
d="M86 527c0 -19.333 0.50293 -35.165 1.50293 -47.498s3.33301 -27.333 7 -45s10.167 -31.167 19.5 -40.5s21.666 -14 36.999 -14c12.667 0 23.334 4 32.001 12s15 17.167 19 27.5s7.16699 24.166 9.5 41.499s3.66602 30.833 3.99902 40.5s0.5 22.5 0.5 38.5
c0 28 -0.666992 50.167 -2 66.5s-3.83301 32.166 -7.5 47.499s-9.83398 26.333 -18.501 33s-19.667 10 -33 10c-26.667 0 -44.834 -13.833 -54.501 -41.5s-14.5 -70.5 -14.5 -128.5zM507.003 728.001h48l-374 -755h-52zM37.0029 537.001c0 67.333 9.16699 116 27.5 146
s48.833 45 91.5 45c39.333 0 67.333 -14.167 84 -42.5s25 -76.166 25 -143.499c0 -62 -8.66699 -109.833 -26 -143.5s-46.666 -50.5 -87.999 -50.5c-42.667 0 -72.334 15.667 -89.001 47s-25 78.666 -25 141.999zM477.003 152.001
c0 -98.667 22.334 -148.001 67.001 -148.001c8 0 15.167 1.33301 21.5 4s11.666 7.33398 15.999 14.001s8 12.667 11 18s5.5 13.5 7.5 24.5l4.5 25c1 5.66699 1.66699 15 2 28s0.5 21.167 0.5 24.5v23c0 54 -4 92.833 -12 116.5s-25 35.5 -51 35.5
c-26.667 0 -44.5 -13 -53.5 -39s-13.5 -68 -13.5 -126zM430.004 162c0 67.333 9.16699 116 27.5 146s48.833 45 91.5 45c39.333 0 67.333 -14.167 84 -42.5s25 -76.166 25 -143.499c0 -62 -8.66699 -109.833 -26 -143.5s-46.666 -50.5 -87.999 -50.5
c-42.667 0 -72.334 15.667 -89.001 47s-25 78.666 -25 141.999z" />
    <glyph glyph-name="ampersand" unicode="&#x26;" horiz-adv-x="611" 
d="M480 307l65.0039 0.000976562c0 -1.33301 -0.666992 -1.5 -2 -0.5s-2 1.16699 -2 0.5c-17.333 -63.333 -36 -115.333 -56 -156l122 -151h-88l-67 96c-44.667 -66.667 -109.334 -100 -194.001 -100c-66.667 0 -117.334 18.667 -152.001 56s-52 79.333 -52 126
c0 20 3.83301 40 11.5 60s16 36.667 25 50s22.167 28.166 39.5 44.499s30.166 27.833 38.499 34.5s21.166 16.334 38.499 29.001c3.33301 2.66699 6 4.66699 8 6l-15 21.5c-8.66699 12.333 -16 23.5 -22 33.5s-12.833 22.167 -20.5 36.5s-13.5 29.166 -17.5 44.499
s-6 30 -6 44c0 39.333 13 73.5 39 102.5s62.667 43.5 110 43.5s82.833 -14.167 106.5 -42.5s35.5 -59.5 35.5 -93.5c0 -64.667 -44.333 -131.667 -133 -201c50.667 -70.667 101.667 -136 153 -196c14 28 25.667 65.333 35 112zM244.004 357.001
c-83.333 -56 -125.001 -115.001 -125.001 -177.001c0 -37.333 14.333 -70.833 43 -100.5s62.334 -44.5 101.001 -44.5c47.333 0 96.333 35.667 147 107c-21.333 24 -41.5 47.833 -60.5 71.5s-33.5 42.334 -43.5 56.001l-35 49.5c-13.333 19.333 -22.333 32 -27 38z
M256.003 431c69.333 56 103.999 111 103.999 165c0 22 -7 42 -21 60s-33.333 27 -58 27c-23.333 0 -43.166 -9.66699 -59.499 -29s-24.5 -43.333 -24.5 -72c0 -24 6.33301 -50.333 19 -79s26 -52.667 40 -72z" />
    <glyph glyph-name="quotesingle" unicode="'" horiz-adv-x="198" 
d="M65 716h69v-248h-54l-15 133v115z" />
    <glyph glyph-name="parenleft" unicode="(" horiz-adv-x="278" 
d="M205 -210c-0.666992 1.33301 -5.5 9.66406 -14.5 24.9971s-15.333 26.666 -19 33.999l-19 38c-9 18 -16 33.667 -21 47l-19.5 51c-8 20.667 -14.167 40.834 -18.5 60.501l-14 65c-5 23.667 -8.5 48.334 -10.5 74.001s-3 52.167 -3 79.5
c0 156.667 42.333 311.334 127 464.001h47c-81.333 -145.333 -122 -302.666 -122 -471.999c0 -132 42 -287.333 126 -466h-39z" />
    <glyph glyph-name="parenright" unicode=")" horiz-adv-x="278" 
d="M72 728c0.666992 -1.33301 5.5 -9.66406 14.5 -24.9971s15.333 -26.666 19 -33.999l19 -38c9 -18 16 -33.667 21 -47l19.5 -51c8 -20.667 14.167 -40.834 18.5 -60.501l14 -65c5 -23.667 8.5 -48.334 10.5 -74.001s3 -52.167 3 -79.5
c0 -156.667 -42.333 -311.334 -127 -464.001h-47c81.333 145.333 122 302.666 122 471.999c0 132 -42 287.333 -126 466h39z" />
    <glyph glyph-name="asterisk" unicode="*" horiz-adv-x="389" 
d="M166 716h56l-9 -121l112 54l17 -51l-116 -35l90 -103l-43 -32l-78 114l-76 -114l-44 32l91 103l-120 39l18 51l113 -58z" />
    <glyph glyph-name="plus" unicode="+" 
d="M28 375h173v170h45v-170h170v-45h-170v-173h-45v173h-173v45z" />
    <glyph glyph-name="comma" unicode="," horiz-adv-x="222" 
d="M68 95h83v-99c0 -60 -27.667 -106.667 -83 -140v46c12 13.333 19.833 22.5 23.5 27.5s7.16699 13.667 10.5 26s4.33301 27.5 3 45.5h-37v94z" />
    <glyph glyph-name="hyphen" unicode="-" horiz-adv-x="333" 
d="M37 299h261l1 -58h-261z" />
    <glyph glyph-name="period" unicode="." horiz-adv-x="222" 
d="M70 88h83v-88h-83v88z" />
    <glyph glyph-name="slash" unicode="/" horiz-adv-x="278" 
d="M224 720h52l-231 -738h-53z" />
    <glyph glyph-name="zero" unicode="0" 
d="M37 381c0 31.333 0.667969 58.6719 2.00098 82.0049s4 49.5 8 78.5s10.167 53.667 18.5 74s19 39.666 32 57.999s30.167 32.166 51.5 41.499s45.666 14 72.999 14c28 0 52.5 -4.66699 73.5 -14s38.167 -23.5 51.5 -42.5s24.166 -38.833 32.499 -59.5s14.333 -46 18 -76
s6.16699 -56.833 7.5 -80.5s2 -51.834 2 -84.501c0 -30.667 -0.166992 -54.334 -0.5 -71.001s-1.66602 -40 -3.99902 -70s-5.66602 -53.833 -9.99902 -71.5s-11 -37.834 -20 -60.501s-19.833 -40.167 -32.5 -52.5s-29 -23 -49 -32s-42.667 -13.5 -68 -13.5
c-28.667 0 -53.834 4.83301 -75.501 14.5s-39.167 24.5 -52.5 44.5s-24 40.333 -32 61s-13.833 47.5 -17.5 80.5s-6 61.667 -7 86s-1.5 55.5 -1.5 93.5zM97.001 342.006c0 -24 0.166992 -43.0068 0.5 -57.0068s1.33301 -33.167 3 -57.5s4 -43.833 7 -58.5
s7.5 -31.167 13.5 -49.5s13.5 -32.666 22.5 -42.999s20.333 -19.166 34 -26.499s29.167 -11 46.5 -11c14.667 0 28.167 2.33301 40.5 7s22.666 12.334 30.999 23.001s15.5 21.334 21.5 32.001s10.833 25.334 14.5 44.001s6.66699 34.834 9 48.501s3.83301 32.5 4.5 56.5
s1.16699 42.667 1.5 56s0.5 32.666 0.5 57.999v59.5c0 11.667 -0.5 30.334 -1.5 56.001s-2.5 44.5 -4.5 56.5s-4.83301 28 -8.5 48s-8.5 34.833 -14.5 44.5s-13.333 20 -22 31s-19 18.667 -31 23s-25.667 6.5 -41 6.5s-29.166 -2.33301 -41.499 -7
s-22.833 -12.167 -31.5 -22.5s-16.167 -21 -22.5 -32s-11.333 -26 -15 -45s-6.66699 -35.833 -9 -50.5s-4 -34.667 -5 -60s-1.66699 -46.166 -2 -62.499s-0.5 -38.833 -0.5 -67.5z" />
    <glyph glyph-name="one" unicode="1" 
d="M251 716h39v-716h-56v621l-116 -62v55c27.333 12.667 49.5 25.667 66.5 39s39.167 34.333 66.5 63z" />
    <glyph glyph-name="two" unicode="2" 
d="M97 518l-53.999 0.00292969c2.66699 14.667 4.5 24.5 5.5 29.5s3.83301 16 8.5 33s9.5 30 14.5 39s12.333 20.667 22 35s20.334 25.166 32.001 32.499s26.167 14 43.5 20s36.666 9 57.999 9c58.667 0 103.5 -17.333 134.5 -52s46.5 -76 46.5 -124
c0 -23.333 -2.83301 -44.833 -8.5 -64.5s-23 -50.5 -52 -92.5s-71.167 -91 -126.5 -147c-31.333 -32.667 -52.666 -55.334 -63.999 -68.001s-22.5 -28.834 -33.5 -48.501s-18.5 -41.167 -22.5 -64.5l310 -1v-53l-377 -1c5.33301 58 17 103.167 35 135.5
s55.667 78.5 113 138.5c63.333 65.333 106.833 116.5 130.5 153.5s35.5 73.167 35.5 108.5c0 46 -12.833 81 -38.5 105s-52.167 36 -79.5 36c-19.333 0 -36.833 -4.33301 -52.5 -13s-27.834 -18.167 -36.501 -28.5s-16.334 -24.333 -23.001 -42s-11.167 -31 -13.5 -40
s-4.83301 -20.833 -7.5 -35.5z" />
    <glyph glyph-name="three" unicode="3" 
d="M32 201l58.999 -0.000976562c12 -110.667 54 -166 126 -166c36 0 66.333 15.333 91 46s37 72.334 37 125.001c0 55.333 -14.333 97 -43 125c-28 27.333 -59.333 41 -94 41h-15.5h-15h-8.5v34c35.333 0 61.833 5.5 79.5 16.5s33.167 26.833 46.5 47.5
c16.667 26 25 56 25 90c0 32 -9.33301 59.5 -28 82.5s-44.334 34.5 -77.001 34.5c-22.667 0 -42.5 -5.5 -59.5 -16.5s-30.167 -25 -39.5 -42s-16.166 -34.167 -20.499 -51.5s-6.5 -34 -6.5 -50h-54c2.66699 60 21.834 108.333 57.501 145s75.834 54.667 120.501 54
c47.333 -0.666992 86.166 -16.167 116.499 -46.5s45.166 -66.833 44.499 -109.5c-1.33301 -78.667 -33.666 -132.667 -96.999 -162v-2c44 -9.33301 76.667 -32.833 98 -70.5s31.333 -77.167 30 -118.5c-2 -66.667 -20.5 -118.667 -55.5 -156s-80.167 -56 -135.5 -56
c-70 0 -119.667 26.333 -149 79c-18.667 32 -29.667 74.333 -33 127z" />
    <glyph glyph-name="four" unicode="4" 
d="M296 718h42l1 -477l30 -2v-50h-31v-187h-55v187h-271v50zM71 239l212 2v362l4 1z" />
    <glyph glyph-name="five" unicode="5" 
d="M67 719l309.999 1v-52l-267 -1l1 -247h6c38 36 81 54 129 54c32.667 0 60.5 -7.16699 83.5 -21.5s39.833 -33.5 50.5 -57.5s18.167 -47.667 22.5 -71s6.5 -48 6.5 -74c0 -29.333 -3 -57.5 -9 -84.5s-15.833 -53.333 -29.5 -79s-33.5 -46.334 -59.5 -62.001
s-57 -23.5 -93 -23.5c-53.333 0 -95.166 19.167 -125.499 57.5s-46.5 88.5 -48.5 150.5h56c1.33301 -41.333 12.833 -80 34.5 -116s51.834 -54 90.501 -54c17.333 0 33 3.83301 47 11.5s25.167 16.5 33.5 26.5s15.666 23.333 21.999 40s10.833 30.667 13.5 42
s4.66699 25.833 6 43.5s2 28.834 2 33.501v22c0 14 -0.833008 27.5 -2.5 40.5s-5.66699 30.667 -12 53s-18.166 40.333 -35.499 54s-39.333 20.5 -66 20.5c-52.667 0 -97.334 -27.333 -134.001 -82h-49z" />
    <glyph glyph-name="six" unicode="6" 
d="M380 534h-54.9961c0 2 -0.833008 10.167 -2.5 24.5s-3.33398 25.666 -5.00098 33.999s-4.66699 19.5 -9 33.5s-9.5 24.833 -15.5 32.5s-14.333 14.667 -25 21s-23 9.5 -37 9.5c-48.667 0 -83.334 -24 -104.001 -72s-31 -122 -31 -222h2
c35.333 56.667 81.666 85 138.999 85c21.333 0 42.5 -4.66699 63.5 -14s38.167 -22 51.5 -38c32 -39.333 48 -97.666 48 -174.999c0 -166.667 -58 -250 -174 -250c-28.667 0 -53.667 5.16699 -75 15.5s-38.5 26 -51.5 47s-23.5 42.167 -31.5 63.5s-13.667 48.5 -17 81.5
s-5.5 60.833 -6.5 83.5s-1.5 51.334 -1.5 86.001c0 35.333 0.666992 65.166 2 89.499s3.83301 51.333 7.5 81s9.83398 54.167 18.501 73.5s19.667 37.833 33 55.5s30.666 30.667 51.999 39s46.333 12.5 75 12.5c85.333 0 134.666 -62.667 147.999 -188
c0.666992 -4 1 -7 1 -9zM107.004 263c0 -14.667 0.333008 -28 1 -40s3.16699 -30 7.5 -54s10.333 -44.167 18 -60.5s19.667 -31 36 -44s35.833 -19.5 58.5 -19.5c23.333 0 43 7.33301 59 22s27.5 33.834 34.5 57.501s11.833 45.667 14.5 66s4 41.5 4 63.5
c0 122.667 -35.667 184 -107 184c-30.667 0 -56 -10.833 -76 -32.5s-33.333 -44.834 -40 -69.501s-10 -49 -10 -73z" />
    <glyph glyph-name="seven" unicode="7" 
d="M25 707l397.002 -0.00195312v-53c-22 -24 -43 -48.833 -63 -74.5s-43.667 -60.5 -71 -104.5s-50.833 -88.667 -70.5 -134s-36.834 -98.166 -51.501 -158.499s-22.667 -121.166 -24 -182.499h-65c6.66699 140 42 275.667 106 407c16 32.667 33.167 63.667 51.5 93
s33.666 51.833 45.999 67.5l42 51.5c15.667 18.667 25.5 30.667 29.5 36h-327v52z" />
    <glyph glyph-name="eight" unicode="8" 
d="M151 393c-10.667 5.33301 -19.499 10.4971 -26.499 15.4971s-16.167 13.333 -27.5 25s-20 27.334 -26 47.001s-9 42.5 -9 68.5c0 54 14.833 96.5 44.5 127.5s69.5 46.5 119.5 46.5c55.333 0 95.833 -17.333 121.5 -52s38.5 -75 38.5 -121
c0 -24.667 -2.83301 -46.5 -8.5 -65.5s-14.167 -34.667 -25.5 -47s-20.333 -21.166 -27 -26.499s-15.334 -11.333 -26.001 -18l24 -11.5c6 -3 15 -9.66699 27 -20s21.5 -21.5 28.5 -33.5s13.5 -29 19.5 -51s9 -46.333 9 -73c0 -63.333 -16.667 -112.833 -50 -148.5
s-78.333 -53.5 -135 -53.5c-54 0 -98.167 15.833 -132.5 47.5s-51.5 79.834 -51.5 144.501c0 110 37.667 176.333 113 199zM94.001 213.997c0 -41.333 4.99902 -71.9961 14.999 -91.9961c26 -52.667 63.667 -79 113 -79c38 0 69 14 93 42s36 71 36 129
c0 27.333 -4 51.166 -12 71.499s-17.167 35.666 -27.5 45.999s-22.166 18.666 -35.499 24.999s-23.833 10.166 -31.5 11.499s-14.5 2 -20.5 2c-35.333 0 -65.833 -13.5 -91.5 -40.5s-38.5 -65.5 -38.5 -115.5zM116 547.001c0 -51.333 11.667 -88 35 -110s48 -33 74 -33
c36 0 62.833 14.5 80.5 43.5s26.5 62.167 26.5 99.5c0 40.667 -10.167 73.167 -30.5 97.5s-46.166 36.5 -77.499 36.5c-32.667 0 -58.834 -12.833 -78.501 -38.5s-29.5 -57.5 -29.5 -95.5z" />
    <glyph glyph-name="nine" unicode="9" 
d="M56 171l54.9971 0.00292969c2 -12.667 3.66699 -22.5 5 -29.5s4.5 -18 9.5 -33s11 -26.667 18 -35s16.833 -16 29.5 -23s27.334 -10.5 44.001 -10.5c48.667 0 82.334 22.167 101.001 66.5s28 116.833 28 217.5h-2c-35.333 -56.667 -81.666 -85 -138.999 -85
c-21.333 0 -42.5 4.66699 -63.5 14s-38.167 22 -51.5 38c-32 39.333 -48 97.666 -48 174.999c0 10.667 0.166992 20.5 0.5 29.5s1.66602 22.833 3.99902 41.5s5.5 35.167 9.5 49.5s10.5 30.333 19.5 48s19.5 32.334 31.5 44.001s27.667 21.5 47 29.5s41 12 65 12
c24.667 0 46.5 -4.5 65.5 -13.5s34.833 -19.833 47.5 -32.5s23.334 -30.334 32.001 -53.001s15.334 -43.5 20.001 -62.5s8.16699 -43.333 10.5 -73s3.66602 -54 3.99902 -73s0.5 -43.5 0.5 -73.5c0 -42.667 -0.833008 -77.834 -2.5 -105.501s-6 -57.667 -13 -90
s-16.833 -57.833 -29.5 -76.5s-31 -34.334 -55 -47.001s-53 -19 -87 -19c-90 0 -142 56.667 -156 170zM334.997 456.003c0 148 -39.335 221.998 -118.002 221.998c-23.333 0 -43.166 -7.5 -59.499 -22.5s-28.166 -34.5 -35.499 -58.5s-12.5 -46.667 -15.5 -68
s-4.5 -42.666 -4.5 -63.999c0 -118.667 35.333 -178 106 -178c30.667 0 56.167 10.333 76.5 31s33.833 42.834 40.5 66.501s10 47.5 10 71.5z" />
    <glyph glyph-name="colon" unicode=":" horiz-adv-x="222" 
d="M70 118h83v-87h-83v87zM70 517h83v-86h-83v86z" />
    <glyph glyph-name="semicolon" unicode=";" horiz-adv-x="222" 
d="M70 94h83v-99c0 -60 -27.667 -106.667 -83 -140v46c12 13.333 19.833 22.5 23.5 27.5s7.16699 13.667 10.5 26s4.33301 27.5 3 45.5h-37v94zM70 518h83v-94h-83v94z" />
    <glyph glyph-name="less" unicode="&#x3c;" 
d="M61 368l322 183v-50l-273 -153l272 -144v-55l-321 183v36z" />
    <glyph glyph-name="equal" unicode="=" 
d="M28 263h388v-51h-388v51zM29 479h388v-50h-388v50z" />
    <glyph glyph-name="greater" unicode="&#x3e;" 
d="M383 368v-36l-321 -183v60l273 139l-274 149v54z" />
    <glyph glyph-name="question" unicode="?" horiz-adv-x="389" 
d="M97 517h-63.0029c14.667 140.667 71.667 211 171 211c44.667 0 80.5 -14.167 107.5 -42.5s40.5 -66.5 40.5 -114.5c0 -53.333 -23 -115 -69 -185c-25.333 -38.667 -40.666 -69.5 -45.999 -92.5s-7.66602 -61.833 -6.99902 -116.5h-83
c-0.666992 43.333 4.33301 80.5 15 111.5s32 70.833 64 119.5c14 21.333 24.833 38.5 32.5 51.5s14.667 29.333 21 49s9.5 39.5 9.5 59.5c0 32.667 -8.16699 60 -24.5 82s-38.166 33 -65.499 33c-20 0 -37 -5.83301 -51 -17.5s-24.5 -28 -31.5 -49s-11.667 -38 -14 -51
s-4.5 -29.167 -6.5 -48.5zM147.997 84h83v-84h-83v84z" />
    <glyph glyph-name="at" unicode="@" horiz-adv-x="800" 
d="M688 46l77.0039 -0.00195312c-38 -47.333 -80.667 -84.333 -128 -111c-62 -34.667 -134.333 -52 -217 -52c-112 0 -205.167 37.333 -279.5 112s-111.5 175.334 -111.5 302.001c0 89.333 19.167 167.333 57.5 234s87.666 116.167 147.999 148.5s126.166 48.5 197.499 48.5
c104.667 0 187.334 -34.167 248.001 -102.5s91 -151.5 91 -249.5s-28 -177.833 -84 -239.5s-119.333 -92.5 -190 -92.5c-18 0 -31.667 4.16699 -41 12.5s-14 19.5 -14 33.5c0 2 0.666992 7.66699 2 17l-2 2c-35.333 -42 -74.333 -63 -117 -63
c-43.333 0 -77.666 18.833 -102.999 56.5s-38 86.167 -38 145.5c0 54 9.5 105.833 28.5 155.5s45.167 90.167 78.5 121.5s69.666 47 108.999 47c57.333 0 93.333 -30 108 -90h2l14 78h59l-86 -417c-2.66699 -11.333 -4 -21.666 -4 -30.999c0 -19.333 10 -29 30 -29
c17.333 0 36.666 6 57.999 18s42 29.333 62 52s36.833 53.167 50.5 91.5s20.5 80.833 20.5 127.5c0 94 -24.333 170.667 -73 230s-118.334 89 -209.001 89c-106 0 -189.167 -38 -249.5 -114s-90.5 -170.667 -90.5 -284c0 -109.333 29.167 -198.333 87.5 -267
s138.5 -103 240.5 -103c107.333 0 196.666 41 267.999 123zM245.004 246.998c0 -100 26.666 -149.999 79.999 -149.999c22.667 0 44.667 7.5 66 22.5s36.333 34.167 45 57.5c32 84 48 163.333 48 238c0 27.333 -7 52.666 -21 75.999s-34 35 -60 35
c-34 0 -63.667 -17 -89 -51s-43.166 -71.5 -53.499 -112.5s-15.5 -79.5 -15.5 -115.5z" />
    <glyph glyph-name="A" unicode="A" horiz-adv-x="500" 
d="M205 692l72 24l223 -716h-71l-60 200h-246l-57 -200h-67zM138 254h215l-112 369z" />
    <glyph glyph-name="B" unicode="B" horiz-adv-x="500" 
d="M82 716l126.001 -0.00195312c12.667 0 23 -0.166992 31 -0.5s20.167 -1.66602 36.5 -3.99902s30 -5.5 41 -9.5s23.5 -10.333 37.5 -19s25.333 -19.167 34 -31.5s16 -28.166 22 -47.499s9 -41 9 -65c0 -82.667 -35.333 -137 -106 -163v-2
c15.333 -3.33301 28.166 -7 38.499 -11s22.666 -11.833 36.999 -23.5s26.833 -26.5 37.5 -44.5c16.667 -28 25 -61 25 -99c0 -24 -3.16699 -46.333 -9.5 -67s-14.666 -37.667 -24.999 -51s-19.666 -24 -27.999 -32s-16.833 -14.667 -25.5 -20
c-26.667 -17.333 -78.334 -26 -155.001 -26h-126v716zM146.001 671.998l-1 -279h66c47.333 0 83 13 107 39s36 60 36 102c0 92 -52.333 138 -157 138h-51zM146.001 348.998v-294h67c113.333 0 170 47.667 170 143c0 66 -25.667 111.333 -77 136c-20.667 10 -63 15 -127 15
h-33z" />
    <glyph glyph-name="C" unicode="C" horiz-adv-x="556" 
d="M508 523l-62.998 0.000976562c-20 115.333 -71 173 -153 173c-115.333 0 -173 -109.667 -173 -329c0 -44.667 2.16699 -84.5 6.5 -119.5s12.166 -68.833 23.499 -101.5s28.5 -58 51.5 -76s51.5 -27 85.5 -27c23.333 0 44.333 5.16699 63 15.5s33 21.833 43 34.5
s19.167 30.167 27.5 52.5s13.833 39.166 16.5 50.499s6 27.666 10 48.999h68c-3.33301 -22 -7.66602 -42.833 -12.999 -62.5s-13.833 -41.167 -25.5 -64.5s-25.334 -43.166 -41.001 -59.499s-36.5 -30 -62.5 -41s-55 -16.5 -87 -16.5s-60.667 5 -86 15s-46 22.5 -62 37.5
s-29.833 34.167 -41.5 57.5s-20.167 44.5 -25.5 63.5s-9.66602 42 -12.999 69s-5.16602 47.667 -5.49902 62s-0.5 31.5 -0.5 51.5c0 22.667 0.166992 41 0.5 55s2 35.667 5 65s7.33301 53.833 13 73.5s14.5 42 26.5 67s26.167 45.167 42.5 60.5s37.666 28.333 63.999 39
s56.166 16 89.499 16c24 0 46.167 -3.16699 66.5 -9.5s37.333 -14 51 -23s26.167 -20.833 37.5 -35.5s20.166 -27.5 26.499 -38.5s12.333 -24.667 18 -41s9.16699 -28 10.5 -35s3.33301 -16.167 6 -27.5z" />
    <glyph glyph-name="D" unicode="D" horiz-adv-x="556" 
d="M83 716l127 -0.000976562c37.333 0 68.333 -1.5 93 -4.5s51 -11 79 -24s50.333 -31.167 67 -54.5s30.5 -56.166 41.5 -98.499s16.5 -93.833 16.5 -154.5c0 -85.333 -4.66699 -147.5 -14 -186.5s-24.666 -73.833 -45.999 -104.5c-18.667 -26 -41.5 -46 -68.5 -60
s-50.833 -22.333 -71.5 -25s-46.334 -4 -77.001 -4h-147v716zM238 669.999l-89.001 -0.00292969l-1 -621h65c37.333 0 69.5 5.16699 96.5 15.5s48.833 24.333 65.5 42s29.834 40.334 39.501 68.001s16.167 56.834 19.5 87.501s5 66.334 5 107.001
c0 33.333 -1.33301 62.833 -4 88.5s-8.16699 52.5 -16.5 80.5s-19.5 51 -33.5 69s-33.5 33 -58.5 45s-54.5 18 -88.5 18z" />
    <glyph glyph-name="E" unicode="E" 
d="M82 716l309 -1v-57l-244 1v-269h225v-51h-225v-282h257v-57h-322v716z" />
    <glyph glyph-name="F" unicode="F" 
d="M82 716h322v-57h-257v-270h229l1 -50h-230v-339h-65v716z" />
    <glyph glyph-name="G" unicode="G" horiz-adv-x="556" 
d="M492 518l-71.0029 0.00195312c-0.666992 7.33301 -1.5 13.5 -2.5 18.5s-3.5 15.5 -7.5 31.5s-9.5 29.833 -16.5 41.5s-15.5 24 -25.5 37s-23.333 23.167 -40 30.5s-35 11 -55 11c-62 0 -106.667 -42 -134 -126c-14.667 -45.333 -22 -105 -22 -179
c0 -78.667 4.16699 -136.334 12.5 -173.001s20.5 -67.667 36.5 -93c9.33301 -14.667 19.833 -27.334 31.5 -38.001s21.667 -18.334 30 -23.001s18.5 -8.16699 30.5 -10.5s19.667 -3.5 23 -3.5h19c44 0 87.667 15.667 131 47v209h-139v57h204v-355l-65 23
c-45.333 -19.333 -91.666 -29 -138.999 -29c-77.333 0 -135.666 27.333 -174.999 82c-22.667 31.333 -39.667 68.333 -51 111s-17 102.334 -17 179.001c0 82 5.16699 143 15.5 183s26.5 74 48.5 102c40.667 51.333 94 77 160 77c122.667 0 195.334 -70 218.001 -210z" />
    <glyph glyph-name="H" unicode="H" horiz-adv-x="556" 
d="M146 405h264v309h65v-714h-65v338h-264v-338h-65v699l65 17v-311z" />
    <glyph glyph-name="I" unicode="I" horiz-adv-x="222" 
d="M79 697l65 19v-716h-65v697z" />
    <glyph glyph-name="J" unicode="J" horiz-adv-x="389" 
d="M243 708l65.002 19v-514c0 -67.333 -5.66699 -113.333 -17 -138c-10 -22 -26 -40.167 -48 -54.5s-48.333 -21.5 -79 -21.5c-22.667 0 -42.334 3 -59.001 9s-30.167 15.333 -40.5 28s-18.666 25 -24.999 37s-10.833 27.667 -13.5 47s-4.33398 34.5 -5.00098 45.5
s-1.33398 26.167 -2.00098 45.5h61c0 -18 0.166992 -32.5 0.5 -43.5s2 -25.667 5 -44s7.16699 -32.833 12.5 -43.5s13.666 -20.167 24.999 -28.5s24.666 -12.5 39.999 -12.5c18.667 0 33.834 5.5 45.501 16.5s19.834 27.167 24.501 48.5s7.5 39.5 8.5 54.5
s1.5 34.5 1.5 58.5v491z" />
    <glyph glyph-name="K" unicode="K" horiz-adv-x="500" 
d="M82 697l65 19v-372l251 372h74l-220 -316l248 -400h-79l-202 355l-72 -100v-255h-65v697z" />
    <glyph glyph-name="L" unicode="L" 
d="M82 694l65 22v-659h260v-57h-325v694z" />
    <glyph glyph-name="M" unicode="M" horiz-adv-x="722" 
d="M83 686l95 30l183 -606l185 606h94v-716h-61v653l-187 -653h-64l-184 651v-651h-61v686z" />
    <glyph glyph-name="N" unicode="N" horiz-adv-x="556" 
d="M81 690l81 26l252 -634v634h61v-716h-84l-249 613v-613h-61v690z" />
    <glyph glyph-name="O" unicode="O" horiz-adv-x="556" 
d="M51 361c0 95.333 7.66113 165.334 22.9941 210.001c36.667 104.667 105.334 157 206.001 157c30 0 57 -4.83301 81 -14.5s43.833 -21.834 59.5 -36.501s29 -33.5 40 -56.5s19.333 -44.5 25 -64.5s10 -44.167 13 -72.5s4.83301 -51.166 5.5 -68.499s1 -38 1 -62
c0 -21.333 -0.166992 -39.5 -0.5 -54.5s-2.16602 -35.667 -5.49902 -62s-7.66602 -49.166 -12.999 -68.499s-13.666 -40.166 -24.999 -62.499s-24.666 -40.666 -39.999 -54.999s-35.166 -26.333 -59.499 -36s-51.833 -14.5 -82.5 -14.5s-58.167 4.66699 -82.5 14
s-44.333 21 -60 35s-29.167 32.167 -40.5 54.5s-19.833 43.166 -25.5 62.499s-10 42.666 -13 69.999s-4.83301 49.166 -5.5 65.499s-1 36.166 -1 59.499zM118.994 359.001c0 -115.333 12.998 -197.667 38.998 -247c10 -18.667 26 -35 48 -49s46.333 -21 73 -21
c21.333 0 40.5 4.16699 57.5 12.5s30.833 18.5 41.5 30.5s20 27.833 28 47.5s14 37.834 18 54.501s7 37.334 9 62.001s3.16699 44.5 3.5 59.5s0.5 33.5 0.5 55.5c0 30 -0.5 56.167 -1.5 78.5s-4.5 50 -10.5 83s-14.167 60.167 -24.5 81.5s-25.666 39.833 -45.999 55.5
s-44.833 23.5 -73.5 23.5c-33.333 0 -61.166 -9.16699 -83.499 -27.5s-39 -44.333 -50 -78s-18.5 -67.834 -22.5 -102.501s-6 -74.334 -6 -119.001z" />
    <glyph glyph-name="P" unicode="P" horiz-adv-x="500" 
d="M82 716h137c160 0 240 -68.667 240 -206c0 -42.667 -9 -80.5 -27 -113.5s-44.333 -57.833 -79 -74.5c-32 -15.333 -80.333 -23 -145 -23h-61v-299h-65v716zM147 669v-320.998h43c134 0 201 54.333 201 163c0 28 -4.83301 52.333 -14.5 73s-21.167 36.167 -34.5 46.5
s-29.5 18.666 -48.5 24.999s-34.833 10.166 -47.5 11.499s-26 2 -40 2h-59z" />
    <glyph glyph-name="Q" unicode="Q" horiz-adv-x="556" 
d="M516 0l-77 -0.00390625l-25 35c-32.667 -24.667 -77.667 -37 -135 -37c-34.667 0 -65.334 5.5 -92.001 16.5s-48 26.833 -64 47.5s-29.167 41.834 -39.5 63.501s-17.666 47.667 -21.999 78s-7.16602 56 -8.49902 77s-2 45.167 -2 72.5c0 100 7.66699 172.667 23 218
c35.333 104.667 104 157 206 157c30 0 56.833 -4.66699 80.5 -14s43.167 -21.166 58.5 -35.499s28.666 -32.833 39.999 -55.5s19.833 -44 25.5 -64s10.167 -43.667 13.5 -71s5.33301 -50 6 -68s1 -39 1 -63c0 -56.667 -3.33301 -105.167 -10 -145.5
s-13.667 -69.166 -21 -86.499s-17.333 -35.666 -30 -54.999zM373 73.9961c29.333 26.667 47.335 57.666 54.002 92.999s10 92.666 10 171.999v24c0 217.333 -52.667 326 -158 326c-106.667 0 -160 -114.333 -160 -343c0 -18.667 0.166992 -35 0.5 -49
s1.66602 -32.333 3.99902 -55s5.5 -42.5 9.5 -59.5s10.167 -35.167 18.5 -54.5s18 -35.166 29 -47.499s25.167 -22.666 42.5 -30.999s36.666 -12.5 57.999 -12.5c20.667 0 40.167 4.33301 58.5 13s29.5 16.667 33.5 24z" />
    <glyph glyph-name="R" unicode="R" horiz-adv-x="500" 
d="M83 716l145 0.00195312c66 0 113 -7.66699 141 -23c57.333 -30.667 86 -85.334 86 -164.001c0 -28 -3.66699 -54.667 -11 -80s-22.333 -50 -45 -74s-52 -39 -88 -45v-2c1.33301 -0.666992 6 -2 14 -4s13 -3.5 15 -4.5s6.66699 -3.16699 14 -6.5s12.5 -7 15.5 -11
s7.66699 -9.5 14 -16.5s11.666 -15.167 15.999 -24.5l16 -34.5c6.33301 -13.667 12.5 -28.834 18.5 -45.501c0 -1.33301 0.333008 -2.83301 1 -4.5s1.33398 -3.16699 2.00098 -4.5s1 -2.33301 1 -3l62 -169h-82c-22 80.667 -34.333 124 -37 130
c-20.667 65.333 -40.667 110 -60 134s-46 39.333 -80 46h-90v-310h-68v716zM148 668.002l-0.000976562 -310h64c18 0 36.167 2.5 54.5 7.5s37 13.167 56 24.5s34.5 28.666 46.5 51.999s18 51.333 18 84c0 52 -12.667 89.333 -38 112
c-14.667 12.667 -32.167 20.834 -52.5 24.501s-56.166 5.5 -107.499 5.5h-41z" />
    <glyph glyph-name="S" unicode="S" horiz-adv-x="500" 
d="M431 527l-63.001 0.00195312c-6.66699 110.667 -48 166 -124 166c-34.667 0 -63 -13.667 -85 -41s-33 -55.333 -33 -84c0 -18 3.83301 -34.833 11.5 -50.5s20.667 -30.834 39 -45.501s33.666 -26 45.999 -34s31.5 -19.333 57.5 -34
c60.667 -34.667 104.334 -68.667 131.001 -102s40 -73.333 40 -120c0 -48.667 -16.167 -92.667 -48.5 -132s-80.833 -59 -145.5 -59c-65.333 0 -117 20.167 -155 60.5s-59.667 97.166 -65 170.499h64c14 -115.333 65 -173 153 -173c41.333 0 73.833 13.167 97.5 39.5
s35.5 56.5 35.5 90.5c0 21.333 -3.83301 40.666 -11.5 57.999s-20 33.333 -37 48s-31.5 25.834 -43.5 33.501s-29.333 17.834 -52 30.501c-61.333 34.667 -106.666 67.5 -135.999 98.5s-44 70.167 -44 117.5c0 50 16.5 90.833 49.5 122.5s74.833 47.5 125.5 47.5
c26.667 0 54.667 -5.5 84 -16.5s53.333 -30.167 72 -57.5c22 -32.667 34.333 -77.334 37 -134.001z" />
    <glyph glyph-name="T" unicode="T" 
d="M17 716h409v-57h-172v-659h-69v659h-168v57z" />
    <glyph glyph-name="U" unicode="U" horiz-adv-x="556" 
d="M82 696l66.002 25.0029v-493c0 -15.333 0.166992 -27.333 0.5 -36s1.66602 -21.334 3.99902 -38.001s6.33301 -30.334 12 -41.001s13 -21.5 22 -32.5s21.5 -19.333 37.5 -25s34.333 -8.5 55 -8.5c54 0 92.333 22.333 115 67c10.667 22 16 70.333 16 145v462h65v-467
c0 -55.333 -3.33301 -97 -10 -125c-20 -86 -82 -129 -186 -129c-26.667 0 -50.667 3.16699 -72 9.5s-38.666 14 -51.999 23s-24.833 21.167 -34.5 36.5s-16.834 29.166 -21.501 41.499s-8.33398 28 -11.001 47s-4.16699 33.5 -4.5 43.5s-0.5 23.333 -0.5 40z" />
    <glyph glyph-name="V" unicode="V" horiz-adv-x="500" 
d="M5 715l73 -1l172 -650l178 652h67l-212 -716h-68z" />
    <glyph glyph-name="W" unicode="W" horiz-adv-x="722" 
d="M7 716h67l121 -638l121 606l85 32l126 -638l126 638h63l-156 -716h-67l-130 633h-2l-134 -633h-67z" />
    <glyph glyph-name="X" unicode="X" horiz-adv-x="500" 
d="M39 716h70l144 -294l151 294h73l-195 -357l214 -359h-73l-170 303l-176 -303h-73l223 359z" />
    <glyph glyph-name="Y" unicode="Y" horiz-adv-x="500" 
d="M7 716h74l168 -354l173 354h71l-216 -408v-308h-65v308z" />
    <glyph glyph-name="Z" unicode="Z" 
d="M59 716h345v-56l-307 -604l319 1v-57h-397v57l312 601l-272 1v57z" />
    <glyph glyph-name="bracketleft" unicode="[" horiz-adv-x="278" 
d="M74 716h177v-43h-123v-787h123v-43h-177v873z" />
    <glyph glyph-name="backslash" unicode="\" horiz-adv-x="222" 
d="M30 726l233 -744h-58l-234 746z" />
    <glyph glyph-name="bracketright" unicode="]" horiz-adv-x="278" 
d="M203 716v-872h-177v43h123v786h-123v43h177z" />
    <glyph glyph-name="asciicircum" unicode="^" 
d="M33 440l192 288l187 -288h-49l-138 220l-143 -220h-49z" />
    <glyph glyph-name="underscore" unicode="_" horiz-adv-x="500" 
d="M-10 -72h523v-53l-523 -1v54z" />
    <glyph glyph-name="grave" unicode="`" horiz-adv-x="333" 
d="M98 714h80l27 -129h-43z" />
    <glyph glyph-name="a" unicode="a" horiz-adv-x="389" 
d="M47 381c6 46.667 17.6709 80.3369 35.0039 101.004c23.333 29.333 59 44 107 44c25.333 0 47.166 -4.33301 65.499 -13s32.166 -18.834 41.499 -30.501s16.5 -26.834 21.5 -45.501s8 -34.167 9 -46.5s1.5 -27.166 1.5 -44.499v-201c0 -34.667 2.16699 -60.167 6.5 -76.5
s13.833 -39.166 28.5 -68.499h-66c-6.66699 20 -11.334 35.333 -14.001 46c-24 -32.667 -61.667 -49 -113 -49c-36.667 0 -67.5 10.667 -92.5 32s-37.5 55 -37.5 101c0 43.333 11.333 77.833 34 103.5s60.667 47.5 114 65.5c36.667 12.667 64.334 24.667 83.001 36l-1 26
c0 19.333 -0.666992 35 -2 47s-4.5 25.167 -9.5 39.5s-13.333 25.166 -25 32.499s-26.834 11 -45.501 11c-7.33301 0 -14.333 -0.833008 -21 -2.5s-12.334 -4.33398 -17.001 -8.00098s-9 -7.5 -13 -11.5s-7.5 -9 -10.5 -15l-7.5 -15.5c-2 -4.33301 -3.83301 -10 -5.5 -17
l-3.5 -15c-0.666992 -3 -1.5 -7.83301 -2.5 -14.5s-1.5 -10.334 -1.5 -11.001c-0.666992 -0.666992 -2.66699 -1 -6 -1c-13.333 1.33301 -31 1.66602 -53 0.999023zM271.004 297.003c-34.667 -16.667 -55.667 -26.334 -63 -29.001c-72 -28.667 -108 -72.667 -108 -132
c0 -28 7.5 -51.333 22.5 -70s32.833 -28 53.5 -28c14 0 28.5 5.33301 43.5 16s26.167 23.334 33.5 38.001c8 16.667 13 38.5 15 65.5s3 73.5 3 139.5z" />
    <glyph glyph-name="b" unicode="b" 
d="M127 -1l-58 0.000976562v695l58 22v-257h2c25.333 47.333 65 71 119 71c103.333 0 155 -87 155 -261c0 -23.333 -0.5 -43.5 -1.5 -60.5s-3 -37.167 -6 -60.5s-8 -43 -15 -59s-16 -31.667 -27 -47s-25.5 -26.833 -43.5 -34.5s-38.667 -11.5 -62 -11.5
c-34.667 0 -61.5 6.66699 -80.5 20s-31.833 27.666 -38.5 42.999h-2v-60zM343 244.001l0.00195312 34.501c0 5.66699 -0.333008 18.167 -1 37.5s-1.83398 33.666 -3.50098 42.999l-7 39c-3 16.667 -7 29.5 -12 38.5s-11 18.667 -18 29s-15.667 17.666 -26 21.999
s-21.833 6.5 -34.5 6.5c-46.667 0 -79.667 -34.333 -99 -103c-10 -39.333 -15 -88.666 -15 -147.999c0 -48 4.33301 -87.667 13 -119c17.333 -58.667 49.666 -88 96.999 -88c70.667 0 106 69.333 106 208z" />
    <glyph glyph-name="c" unicode="c" horiz-adv-x="389" 
d="M346 371l-54.9932 -0.00292969c-5.33301 34.667 -15.166 62.834 -29.499 84.501s-36.5 32.167 -66.5 31.5c-20.667 0 -37.834 -5.83301 -51.501 -17.5s-23.5 -28.5 -29.5 -50.5s-10 -43 -12 -63s-3 -44 -3 -72c0 -162 35.333 -243 106 -243
c17.333 0 31.666 3.33301 42.999 10s19.833 17 25.5 31s9.66699 26.333 12 37s4.16602 25 5.49902 43h61c-1.33301 -15.333 -3 -28.333 -5 -39s-6.33301 -24.5 -13 -41.5s-14.834 -30.833 -24.501 -41.5s-23.834 -20 -42.501 -28s-40.334 -12 -65.001 -12
c-30 0 -55.667 6.5 -77 19.5s-37.333 28.167 -48 45.5s-19 40 -25 68s-9.66699 51.667 -11 71s-2 42.333 -2 69c0 18.667 0.166992 34.334 0.5 47.001s1.66602 28.5 3.99902 47.5s5.5 35 9.5 48s10 26.833 18 41.5s17.5 26.334 28.5 35.001s24.833 16 41.5 22s35.667 9 57 9
c27.333 0 50.5 -4.33301 69.5 -13s33.667 -21.5 44 -38.5s17.666 -32.5 21.999 -46.5s8.5 -32 12.5 -54z" />
    <glyph glyph-name="d" unicode="d" 
d="M317 -1v59.999h-2c-18 -41.333 -57 -62 -117 -62c-28 0 -52.167 6 -72.5 18s-35.833 26.667 -46.5 44s-19 39.333 -25 66s-9.66699 50.334 -11 71.001s-2 45 -2 73c0 168.667 52 253 156 253c56 0 95.333 -21 118 -63h2v239l58 18v-717h-58zM101 243.999
c0 -138.667 35.3301 -208 105.997 -208c48.667 0 81 29.333 97 88c8.66699 31.333 13 71 13 119c0 62 -5 111.333 -15 148c-16.667 60.667 -48.667 91 -96 91c-14.667 0 -27.667 -3.16699 -39 -9.5s-20.666 -14 -27.999 -23s-13.5 -21.167 -18.5 -36.5s-8.66699 -29 -11 -41
s-4.16602 -27.5 -5.49902 -46.5s-2.16602 -33.333 -2.49902 -43s-0.5 -22.5 -0.5 -38.5z" />
    <glyph glyph-name="e" unicode="e" horiz-adv-x="389" 
d="M295 166h56.999c-10 -110 -59 -165 -147 -165c-56 0 -97.667 20.5 -125 61.5s-41 112.5 -41 214.5c0 35.333 2 66.5 6 93.5s11.333 53 22 78s26.834 44.333 48.501 58s48.167 20.5 79.5 20.5c104.667 0 157 -74.667 157 -224v-46h-253
c0.666992 -31.333 2.16699 -56.5 4.5 -75.5s6.66602 -40.833 12.999 -65.5s17 -43.167 32 -55.5s33.833 -18.5 56.5 -18.5c19.333 0 35.5 4.83301 48.5 14.5s22.167 22.334 27.5 38.001s8.83301 28.667 10.5 39s2.83398 21.166 3.50098 32.499zM98.999 307h195.002v33
c0 7.33301 -0.166992 14 -0.5 20s-1.33301 15.5 -3 28.5s-4.66699 24.667 -9 35s-9.83301 20.666 -16.5 30.999s-15.834 18.5 -27.501 24.5s-25.167 9 -40.5 9c-14.667 0 -27.334 -2.16699 -38.001 -6.5s-19.5 -11.666 -26.5 -21.999s-12.667 -20 -17 -29s-7.5 -22 -9.5 -39
s-3.5 -30.333 -4.5 -40s-1.83301 -24.5 -2.5 -44.5z" />
    <glyph glyph-name="f" unicode="f" horiz-adv-x="222" 
d="M29 519l46 -1v96c0 76 33.333 114 100 114c6 0 25.333 -3 58 -9v-49c-18 12.667 -34 19 -48 19c-34 0 -51 -21.667 -51 -65l-1 -106h83v-43h-83v-475h-58v475l-46 1v43z" />
    <glyph glyph-name="g" unicode="g" 
d="M319 518l56.998 0.00195312v-527c0 -13.333 -0.166992 -23.833 -0.5 -31.5s-1.5 -19.334 -3.5 -35.001s-4.83301 -28.834 -8.5 -39.501s-9.16699 -22.5 -16.5 -35.5s-16.333 -23.333 -27 -31s-24.5 -14.334 -41.5 -20.001s-36.167 -8.5 -57.5 -8.5
c-28.667 0 -53.667 4 -75 12s-37.166 17 -47.499 27s-18.833 23 -25.5 39s-10.667 28 -12 36s-2.33301 18 -3 30h59c2 -35.333 13.5 -62 34.5 -80s41.5 -27 61.5 -27c69.333 0 104 48.333 104 145v89h-2c-11.333 -19.333 -25.333 -34.333 -42 -45s-41.667 -16 -75 -16
c-104.667 0 -157 85 -157 255c0 178 54 267 162 267c34.667 0 59.834 -5.66699 75.501 -17s28.5 -27.666 38.5 -48.999h2v62zM100.998 252.002c0 -20 0.331055 -37.501 0.998047 -52.501s3 -33.667 7 -56s9.33301 -40.5 16 -54.5s16.834 -26.333 30.501 -37
s30.167 -16 49.5 -16c44.667 0 76.334 27 95.001 81c12 36.667 18 88.334 18 155.001c0 56.667 -4 98.667 -12 126c-17.333 58.667 -50 88 -98 88c-19.333 0 -35.833 -5.16699 -49.5 -15.5s-24.167 -23 -31.5 -38s-13 -34 -17 -57s-6.5 -43.333 -7.5 -61
s-1.5 -38.5 -1.5 -62.5z" />
    <glyph glyph-name="h" unicode="h" 
d="M66 700l58.001 15.999v-251h2c24.667 38.667 64.667 57.334 120 56.001c88.667 -2 133 -66.333 133 -193l-1 -328h-58v365c0 28.667 -6.83301 55.167 -20.5 79.5s-31.834 36.833 -54.501 37.5c-18 0.666992 -36.833 -4.5 -56.5 -15.5s-35.167 -27.5 -46.5 -49.5
c-12 -24 -18 -63 -18 -117v-300h-58v700z" />
    <glyph glyph-name="i" unicode="i" horiz-adv-x="222" 
d="M82 520h58v-520h-58v520zM82 716h58v-60h-58v60z" />
    <glyph glyph-name="j" unicode="j" horiz-adv-x="222" 
d="M82 518l58 -0.000976562v-536c0 -29.333 -1 -53.333 -3 -72s-6.16699 -38.334 -12.5 -59.001s-17 -36 -32 -46s-34.167 -15 -57.5 -15c-9.33301 0 -22 1.33301 -38 4v53c0.666992 0 4.5 -2.16699 11.5 -6.5s12.167 -6.83301 15.5 -7.5
c16.667 -3.33301 30.5 1.33398 41.5 14.001s16.5 38.334 16.5 77.001v594zM82 715.999h58l1 -63h-58z" />
    <glyph glyph-name="k" unicode="k" horiz-adv-x="389" 
d="M71 697l58 19v-417l175 219h66l-176 -215l189 -303h-64l-155 270l-35 -39v-231h-58v697z" />
    <glyph glyph-name="l" unicode="l" horiz-adv-x="222" 
d="M82 697l58 19v-716h-58v697z" />
    <glyph glyph-name="m" unicode="m" horiz-adv-x="667" 
d="M68 500l58.002 17.9961v-51h2c4.66699 6.66699 9.33398 12.667 14.001 18s9.5 9.66602 14.5 12.999s9.5 6.5 13.5 9.5s8.5 5.33301 13.5 7s9.16699 3 12.5 4s7.5 1.66699 12.5 2s8.33301 0.5 10 0.5h9.5h8c12 0 20.667 -0.333008 26 -1s14.166 -2.66699 26.499 -6
s23.166 -10 32.499 -20s18 -23 26 -39c28 47.333 71.667 69.333 131 66c12.667 -0.666992 25.167 -2.66699 37.5 -6s25.666 -9.16602 39.999 -17.499s26 -21.166 35 -38.499s13.5 -38 13.5 -62v-397h-58v374c0 16 -1.66699 31.167 -5 45.5s-11 28 -23 41
s-27.667 19.5 -47 19.5c-44.667 0 -77.334 -22.667 -98.001 -68c-3.33301 -7.33301 -5.66602 -17.5 -6.99902 -30.5s-2 -24.667 -2 -35s0.166992 -23.666 0.5 -39.999s0.5 -26.833 0.5 -31.5v-275h-58v368c0 16.667 -1.83301 32.5 -5.5 47.5s-11.667 29 -24 42
s-28.5 19.5 -48.5 19.5c-42 0 -73 -19.667 -93 -59c-3.33301 -8 -5.83301 -18.333 -7.5 -31s-2.66699 -23.167 -3 -31.5s-0.333008 -19.666 0 -33.999s0.5 -22.166 0.5 -23.499v-298h-58v500z" />
    <glyph glyph-name="n" unicode="n" 
d="M66 518l57.998 -0.00292969v-53h2c7.33301 11.333 13.333 19.833 18 25.5s15.334 12 32.001 19s37.334 10.5 62.001 10.5c26.667 0 50 -5.66699 70 -17s34.667 -25.166 44 -41.499s16 -31.166 20 -44.499s6 -24.666 6 -33.999v-383h-58v365c0 76 -29.333 114 -88 114
c-39.333 0 -69.333 -20.667 -90 -62c-12 -24 -18 -63 -18 -117v-300h-58v518z" />
    <glyph glyph-name="o" unicode="o" 
d="M41 268c0 168.667 60.001 253 180.001 253c121.333 0 182 -87.333 182 -262c0 -174 -60.333 -261 -181 -261c-30.667 0 -57.167 5.16699 -79.5 15.5s-39.833 23.666 -52.5 39.999s-22.834 36.833 -30.501 61.5s-12.667 48.834 -15 72.501s-3.5 50.5 -3.5 80.5z
M222.001 482c-80.667 0 -121.003 -70.666 -121.003 -211.999c0 -19.333 0.5 -36.833 1.5 -52.5s2.83301 -33 5.5 -52s6.83398 -35.667 12.501 -50s12.834 -27.833 21.501 -40.5s19.834 -22.334 33.501 -29.001s29.5 -10 47.5 -10c80 0 120 76 120 228
c0 145.333 -40.333 218 -121 218z" />
    <glyph glyph-name="p" unicode="p" 
d="M127 518l0.000976562 -58.9971h2c18 42 56 63 114 63c31.333 0 58.166 -8.5 80.499 -25.5s38.833 -39.5 49.5 -67.5s18.334 -56.167 23.001 -84.5s7 -57.833 7 -88.5c0 -19.333 -0.833008 -38.333 -2.5 -57s-5.5 -40.834 -11.5 -66.501s-14.167 -47.834 -24.5 -66.501
s-25.333 -34.834 -45 -48.501s-42.834 -20.5 -69.501 -20.5c-58 -0.666992 -98.333 20 -121 62h-2v-258h-58v717h58zM343.001 274.003c0 138.667 -35.3301 207.999 -105.997 207.999c-46.667 0 -78.667 -29.333 -96 -88c-9.33301 -34 -14 -74.667 -14 -122
c0 -59.333 4.33301 -105.666 13 -138.999c18 -64.667 50.667 -97 98 -97c14.667 0 27.667 3.16699 39 9.5s20.666 14 27.999 23s13.5 21.167 18.5 36.5s8.66699 29 11 41s4.16602 27.5 5.49902 46.5s2.16602 33.333 2.49902 43s0.5 22.5 0.5 38.5z" />
    <glyph glyph-name="q" unicode="q" 
d="M317 518l57.9971 0.000976562v-717h-58v258h-2c-6.66699 -12 -12.667 -21.5 -18 -28.5s-16.166 -14.333 -32.499 -22s-36.166 -11.5 -59.499 -11.5c-26 0 -49.167 6.66699 -69.5 20s-36.166 29.666 -47.499 48.999s-20.833 41.333 -28.5 66s-12.667 47 -15 67
s-3.5 39 -3.5 57c0 30 2.66699 59.5 8 88.5s13.833 57.333 25.5 85s28.5 50 50.5 67s48 25.5 78 25.5c56.667 0 94 -21 112 -63h2v59zM100.997 274.001c0 -16 0.168945 -28.832 0.501953 -38.499s1.16602 -24 2.49902 -43s3.16602 -34.5 5.49902 -46.5s6 -25.667 11 -41
s11.167 -27.5 18.5 -36.5s16.666 -16.667 27.999 -23s24.333 -9.5 39 -9.5c48.667 0 81.334 32.333 98.001 97c8.66699 33.333 13 79.666 13 138.999c0 50 -4.66699 90.667 -14 122c-17.333 58.667 -49.333 88 -96 88c-70.667 0 -106 -69.333 -106 -208z" />
    <glyph glyph-name="r" unicode="r" horiz-adv-x="278" 
d="M67 518h53v-69h2c8 26 19.5 46 34.5 60s37.167 21 66.5 21c26.667 0 44.667 -3 54 -9v-64c-17.333 15.333 -35.333 23 -54 23c-42.667 0 -71 -23.333 -85 -70c-8.66699 -26.667 -13 -72 -13 -136v-274h-58v518z" />
    <glyph glyph-name="s" unicode="s" horiz-adv-x="389" 
d="M332 392l-58.0059 -0.00390625c-2 26.667 -11.167 48.334 -27.5 65.001s-39.166 25 -68.499 25c-22.667 0 -41.667 -7.5 -57 -22.5s-23 -32.833 -23 -53.5c0 -22.667 8.33301 -42 25 -58s47 -35 91 -57c46.667 -23.333 81.5 -47.333 104.5 -72s34.5 -54 34.5 -88
c0 -6 -0.5 -12.833 -1.5 -20.5s-4.66699 -18.667 -11 -33s-14.666 -27.166 -24.999 -38.499s-26.166 -21.333 -47.499 -30s-46.666 -13 -75.999 -13c-57.333 0 -98.666 18 -123.999 54c-22 28.667 -34.667 59.334 -38 92.001h59c5.33301 -37.333 17.833 -64.333 37.5 -81
s42.834 -25 69.501 -25c30.667 0 54.5 9 71.5 27s25.5 38 25.5 60c0 14.667 -3.5 28.334 -10.5 41.001s-17.333 24.167 -31 34.5s-25.334 18.333 -35.001 24s-22.834 12.5 -39.501 20.5c-47.333 23.333 -81.666 46.5 -102.999 69.5s-32 50.833 -32 83.5
c0 35.333 11.833 64.833 35.5 88.5s58.834 35.5 105.501 35.5c44.667 0 79.167 -11.667 103.5 -35s39.5 -54.333 45.5 -93z" />
    <glyph glyph-name="t" unicode="t" horiz-adv-x="222" 
d="M123 515l75.001 -0.00195312v-43h-75v-350c0 -16 0.333008 -28 1 -36s2.16699 -17.167 4.5 -27.5s6.5 -17.666 12.5 -21.999s14 -6.5 24 -6.5c2.66699 0 7.5 1 14.5 3s14.667 4.33301 23 7s13.833 4.33398 16.5 5.00098v-51c-20.667 -4 -40 -6 -58 -6
c-40.667 0 -66.834 11.667 -78.501 35s-17.5 60 -17.5 110v339l-33 -1v43l33 1v133l58 37v-170z" />
    <glyph glyph-name="u" unicode="u" 
d="M378 0l-58.001 0.000976562l1 49c-22.667 -35.333 -60.667 -52.333 -114 -51c-33.333 0.666992 -61.166 10.667 -83.499 30s-37.333 40.166 -45 62.499s-11.5 44.833 -11.5 67.5v341l57 19v-346c0 -30 7.83301 -60 23.5 -90s36.167 -45 61.5 -45
c44.667 0 75.667 21.333 93 64c12 30.667 18 69.667 18 117v300h58v-518z" />
    <glyph glyph-name="v" unicode="v" horiz-adv-x="389" 
d="M2 518h58l134 -429h2l137 429h54l-164 -518h-57z" />
    <glyph glyph-name="w" unicode="w" horiz-adv-x="556" 
d="M1 518l67 -1l65 -439l109 416l69 24l107 -440l78 443l59 -3l-101 -518h-65l-110 440h-2l-118 -440h-64z" />
    <glyph glyph-name="x" unicode="x" horiz-adv-x="389" 
d="M4 518h65l123 -218l130 218h65l-163 -270l165 -248h-62l-135 198l-128 -198h-64l159 248z" />
    <glyph glyph-name="y" unicode="y" horiz-adv-x="389" 
d="M0 518h55.999l142 -445l132 445h57l-185 -610l-2 -8c-11.333 -38 -24 -65.833 -38 -83.5s-34.667 -26.5 -62 -26.5c-17.333 0 -37 2.33301 -59 7v59c26.667 -5.33301 43.334 -8 50.001 -8c20 0 33 8 39 24c12 28.667 18.667 46 20 52l22 76z" />
    <glyph glyph-name="z" unicode="z" horiz-adv-x="333" 
d="M23 518h288v-48l-230 -422h237v-48h-306v48l232 422h-221v48z" />
    <glyph glyph-name="braceleft" unicode="{" horiz-adv-x="351" 
d="M294 728l-0.000976562 -38.001c-38 -0.666992 -62.167 -12.167 -72.5 -34.5s-15.5 -71.166 -15.5 -146.499c0 -68.667 -7.66699 -121.667 -23 -159s-45.666 -67 -90.999 -89c45.333 -20.667 75.833 -50 91.5 -88s23.5 -87.333 23.5 -148
c0 -86 4.16699 -139.5 12.5 -160.5s33.166 -32.5 74.499 -34.5v-40c-52.667 -0.666992 -89.667 12.333 -111 39s-32 68.667 -32 126c0 88 -0.666992 143.167 -2 165.5s-6 41.833 -14 58.5c-6.66699 14 -15.167 24.833 -25.5 32.5s-18.833 12 -25.5 13
s-15.667 1.83301 -27 2.5v64c17.333 0.666992 32.333 5 45 13s22.167 17.167 28.5 27.5s11.166 23.833 14.499 40.5s5.33301 30 6 40s1 22.333 1 37c0 86.667 1.33301 142.5 4 167.5s10.334 46.167 23.001 63.5c12 15.333 25.667 26.833 41 34.5s27.833 12 37.5 13
s21.834 1.16699 36.501 0.5z" />
    <glyph glyph-name="bar" unicode="|" horiz-adv-x="222" 
d="M86 716h51v-914h-51v914z" />
    <glyph glyph-name="braceright" unicode="}" horiz-adv-x="351" 
d="M56 728c14.667 0.666992 26.832 0.49707 36.499 -0.50293s22.167 -5.33301 37.5 -13s29 -19.167 41 -34.5c12.667 -17.333 20.334 -38.5 23.001 -63.5s4 -80.833 4 -167.5c0 -14.667 0.333008 -27 1 -37s2.66699 -23.333 6 -40s8.16602 -30.167 14.499 -40.5
s15.833 -19.5 28.5 -27.5s27.667 -12.333 45 -13v-64c-11.333 -0.666992 -20.333 -1.5 -27 -2.5s-15.167 -5.33301 -25.5 -13s-18.833 -18.5 -25.5 -32.5c-8 -16.667 -12.667 -36.167 -14 -58.5s-2 -77.5 -2 -165.5c0 -57.333 -10.667 -99.333 -32 -126
s-58.333 -39.667 -111 -39v45c42 2 67 12.833 75 32.5s12 72.167 12 157.5c0 62 7.33301 111.333 22 148s44.334 65.334 89.001 86.001c-44.667 21.333 -74.167 50.833 -88.5 88.5s-21.5 91.5 -21.5 161.5c0 74.667 -5.16699 122.334 -15.5 143.001
s-34.5 31.334 -72.5 32.001v44z" />
    <glyph glyph-name="asciitilde" unicode="~" 
d="M410 386v-58c-24 -25.333 -52.333 -38 -85 -38c-28 0 -67.333 14.667 -118 44c-40 23.333 -66.333 35 -79 35c-15.333 0 -31.833 -6 -49.5 -18s-32.167 -24.333 -43.5 -37v57c28.667 28.667 59 43 91 43c21.333 0 47 -8.33301 77 -25l27 -15l29 -15
c31.333 -16 52.333 -24 63 -24c36.667 0 66 17 88 51z" />
    <glyph glyph-name="uni00A0" unicode="&#xa0;" horiz-adv-x="222" 
 />
    <glyph glyph-name="exclamdown" unicode="&#xa1;" horiz-adv-x="222" 
d="M77 -199v155l17 385h35l20 -385v-155h-72zM70 423v94h83v-94h-83z" />
    <glyph glyph-name="cent" unicode="&#xa2;" 
d="M374 366l-56 -13.001c-4 54 -18 90.667 -42 110l-71 -423c16 -2.66699 24.667 -4 26 -4c15.333 0 28.666 3.5 39.999 10.5s19.833 14.5 25.5 22.5s10.667 19.833 15 35.5s7 27.667 8 36s2.16699 20.5 3.5 36.5l56 -10c-2 -17.333 -3.66699 -31 -5 -41
s-5.33301 -25 -12 -45s-14.667 -35.667 -24 -47s-23.166 -21.833 -41.499 -31.5s-39.833 -14.5 -64.5 -14.5c-16 0 -27.667 1 -35 3l-31 -185l-39 7l32 191c-60.667 32.667 -91 120.334 -91 263.001c0 32 1 59 3 81s6 45.667 12 71s15.833 46.5 29.5 63.5
s31.5 29.5 53.5 37.5c25.333 10 52.333 13 81 9l30 180l39 -5l-31 -185c26 -11.333 45.5 -28.833 58.5 -52.5s23.167 -57.167 30.5 -100.5zM169 63.999l69 415c-21.333 2.66699 -40 0 -56 -8c-22 -11.333 -36.5 -30.5 -43.5 -57.5s-10.5 -72.5 -10.5 -136.5
c0 -112 13.667 -183 41 -213z" />
    <glyph glyph-name="sterling" unicode="&#xa3;" 
d="M169 384h122.002v-52h-110c3.33301 -21.333 5 -39 5 -53c0 -63.333 -29 -133.333 -87 -210l2 -2c22.667 6.66699 44 10 64 10c28 0 57.667 -6 89 -18c26 -9.33301 46 -14 60 -14c30.667 0 60.667 9.66699 90 29l22 -52c-39.333 -22.667 -77.333 -34 -114 -34
c-20.667 0 -43.334 4.66699 -68.001 14c-46.667 17.333 -77.667 26 -93 26c-30.667 0 -65.667 -12.667 -105 -38l-25 51c39.333 37.333 67.666 77.5 84.999 120.5s26 78.5 26 106.5c0 14 -3 35.333 -9 64h-102v52h88l-7 21c-22 66.667 -33 117 -33 151
c0 51.333 14.667 92.833 44 124.5s69.666 47.5 120.999 47.5c45.333 0 83.833 -13.667 115.5 -41s48.5 -73.666 50.5 -138.999l-56 -9c-2.66699 94 -39 141 -109 141c-39.333 0 -67.5 -13.167 -84.5 -39.5s-25.5 -53.833 -25.5 -82.5c0 -15.333 2.5 -33.333 7.5 -54
s8.83301 -34.334 11.5 -41.001c0.666992 -2.66699 3.5 -12 8.5 -28s7.83301 -25.333 8.5 -28c0.666992 -1.33301 3.33398 -9 8.00098 -23z" />
    <glyph glyph-name="currency" unicode="&#xa4;" 
d="M73 577l38.999 -51.0029c31.333 27.333 69 41 113 41c38 0 74.667 -13.667 110 -41l42 51l30 -25l-46 -61c18 -39.333 27 -84.666 27 -135.999c0 -58.667 -9 -107 -27 -145l46 -59l-32 -26l-40 52c-30.667 -28 -68 -42 -112 -42c-20 0 -37.667 2.33301 -53 7
s-26.166 9.16699 -32.499 13.5s-14.833 10.833 -25.5 19.5l-39 -50l-32 26l45 57c-19.333 36.667 -29 84.334 -29 143.001s9.66699 106.334 29 143.001l-45 58zM96.999 351.997c0 -50.667 7.66699 -90.333 23 -119c20.667 -38.667 55 -58 103 -58s82.333 20 103 60
c14.667 30 22 70.667 22 122c0 113.333 -42 170 -126 170c-83.333 0 -125 -58.333 -125 -175z" />
    <glyph glyph-name="yen" unicode="&#xa5;" 
d="M0 716h66l160 -349l153 349h65l-164 -358h130v-43h-149l-6 -12v-67h155v-43h-155v-193h-63v193h-158v43h158v67l-5 12h-153v43h133z" />
    <glyph glyph-name="brokenbar" unicode="&#xa6;" horiz-adv-x="222" 
d="M86 716h51v-380h-51v380zM86 181h51v-379h-51v379z" />
    <glyph glyph-name="section" unicode="&#xa7;" 
d="M366 563l-58.9971 -0.00195312c-8.66699 76 -38.334 114 -89.001 114c-24.667 0 -44 -7.5 -58 -22.5s-21 -31.5 -21 -49.5s7 -38.167 21 -60.5s28.667 -41.5 44 -57.5s40 -40 74 -72c49.333 -48 82.5 -85 99.5 -111s25.5 -54 25.5 -84c0 -20.667 -3.5 -39 -10.5 -55
s-17 -29.333 -30 -40s-25 -19 -36 -25s-24.167 -12.333 -39.5 -19c30 -29.333 50.667 -55.166 62 -77.499s17 -46.166 17 -71.499c0 -44 -14 -78.667 -42 -104s-62 -38 -102 -38c-18 0 -34.667 2.5 -50 7.5s-28 11 -38 18s-19.167 16.167 -27.5 27.5
s-14.833 21.5 -19.5 30.5s-9 20.167 -13 33.5s-6.5 23.166 -7.5 29.499s-2.5 14.833 -4.5 25.5h60c1.33301 -16 3.66602 -30.167 6.99902 -42.5s8.5 -25 15.5 -38s17.167 -23 30.5 -30s29.666 -10.5 48.999 -10.5c26 0 46.833 7.83301 62.5 23.5s23.5 36.167 23.5 61.5
c0 20 -5.66699 39.833 -17 59.5s-23.833 36.334 -37.5 50.001s-36.5 34.5 -68.5 62.5c-51.333 45.333 -88.5 84 -111.5 116s-34.5 64.667 -34.5 98c0 65.333 39.667 110.333 119 135c-14.667 16 -26.167 29.333 -34.5 40s-17.5 26.667 -27.5 48s-15 42.333 -15 63
c0 33.333 11.167 63.333 33.5 90s56.5 40 102.5 40c82 0 131 -55 147 -165zM232.003 379.998l-38 36c-11.333 -3.33301 -20.833 -6.5 -28.5 -9.5s-17.5 -8 -29.5 -15s-21.333 -16.5 -28 -28.5s-10 -26.333 -10 -43c0 -14 2.33301 -27.333 7 -40
c6 -16.667 13.333 -30.167 22 -40.5s34.667 -37.166 78 -80.499l9 -9l39 -36c17.333 4.66699 32.333 11.167 45 19.5s22 16.5 28 24.5s10.667 17 14 27s5.16602 17 5.49902 21s0.5 8 0.5 12c0 19.333 -7 38.666 -21 57.999c-27.333 38.667 -55.666 70.667 -84.999 96z" />
    <glyph glyph-name="dieresis" unicode="&#xa8;" horiz-adv-x="333" 
d="M61 677h60v-85h-60v85zM212 677h60v-85h-60v85z" />
    <glyph glyph-name="copyright" unicode="&#xa9;" horiz-adv-x="800" 
d="M562 451l-47.001 -14.001c-23.333 54 -60 81 -110 81c-8.66699 0 -18.167 -1 -28.5 -3s-22.166 -6.5 -35.499 -13.5s-25.166 -16 -35.499 -27s-19.166 -26.5 -26.499 -46.5s-11 -43 -11 -69c0 -54.667 13 -97.167 39 -127.5s57 -45.5 93 -45.5
c19.333 0 36.166 3 50.499 9s26.166 14.833 35.499 26.5s16.333 21.834 21 30.501s9.66699 20 15 34l44 -16c-5.33301 -14.667 -10.333 -26.5 -15 -35.5s-13.167 -22 -25.5 -39s-29 -30.167 -50 -39.5s-45.5 -14 -73.5 -14c-57.333 0 -102.833 21.5 -136.5 64.5
s-50.5 92.833 -50.5 149.5c0 52.667 16.5 99.667 49.5 141s79.833 62 140.5 62c68 0 120.333 -36 157 -108zM399.999 727.999c102.667 0 190.5 -36.333 263.5 -109s109.5 -160.667 109.5 -264c0 -102.667 -36.5 -190.5 -109.5 -263.5s-160.833 -109.5 -263.5 -109.5
s-190.5 36.333 -263.5 109s-109.5 160.667 -109.5 264c0 104 36.5 192.167 109.5 264.5s160.833 108.5 263.5 108.5zM399.999 682.999c-90 0 -167.167 -31.833 -231.5 -95.5s-96.5 -141.167 -96.5 -232.5c0 -90.667 32 -168 96 -232s141.333 -96 232 -96s168 32 232 96
s96 141.333 96 232c0 91.333 -32.167 168.833 -96.5 232.5s-141.5 95.5 -231.5 95.5z" />
    <glyph glyph-name="ordfeminine" unicode="&#xaa;" horiz-adv-x="266" 
d="M80 619l-45.999 0.00195312l4.5 29c1 6.66699 3.66699 16 8 28s9.5 21 15.5 27s14.5 11.667 25.5 17s24.167 8 39.5 8c18 0 33.167 -3 45.5 -9s21.5 -12.667 27.5 -20s10.667 -17.5 14 -30.5s5.16602 -23.333 5.49902 -31s0.5 -18.167 0.5 -31.5v-142
c0 -43.333 4 -73 12 -89h-45c-4 7.33301 -6.66699 17.666 -8 30.999c-20.667 -23.333 -47 -35 -79 -35c-51.333 0 -77 27 -77 81c0 27.333 6.83301 49.5 20.5 66.5s35.167 31.5 64.5 43.5c31.333 12.667 53.666 24.667 66.999 36c0.666992 10 0.833984 20.833 0.500977 32.5
s-1.5 22.167 -3.5 31.5s-6.33301 17.166 -13 23.499s-15.667 9.5 -27 9.5c-32 0 -49.333 -25.333 -52 -76zM175.001 557.002c-19.333 -11.333 -35.333 -19.667 -48 -25c-12.667 -6.66699 -22.167 -12 -28.5 -16s-12.833 -11.5 -19.5 -22.5s-10 -24.167 -10 -39.5
c0 -31.333 12.333 -47 37 -47c14.667 0 28.667 6.16699 42 18.5s21.333 32.833 24 61.5c2 18 3 41.333 3 70z" />
    <glyph glyph-name="guillemotleft" unicode="&#xab;" horiz-adv-x="500" 
d="M193 478h44l-129 -220l129 -222h-44l-151 222zM399 478h44l-129 -220l129 -222h-44l-151 222z" />
    <glyph glyph-name="logicalnot" unicode="&#xac;" 
d="M28 372h388v-215h-42v173h-346v42z" />
    <glyph glyph-name="uni00AD" unicode="&#xad;" horiz-adv-x="333" 
d="M36 290h261v-63h-261v63z" />
    <glyph glyph-name="registered" unicode="&#xae;" horiz-adv-x="800" 
d="M249 547l162.999 0.00390625c24.667 0 46.167 -3.33301 64.5 -10s31.666 -14.334 39.999 -23.001s14.833 -18.834 19.5 -30.501s7.33398 -20 8.00098 -25s1 -10.167 1 -15.5c0 -17.333 -3.16699 -32.833 -9.5 -46.5s-13.833 -24.167 -22.5 -31.5s-19 -13.5 -31 -18.5
s-21.833 -8.33301 -29.5 -10s-15.5 -2.83398 -23.5 -3.50098v-2c20 -6.66699 35.167 -14.334 45.5 -23.001s21.833 -24 34.5 -46s29.667 -57.667 51 -107h-59l-11 23c-30.667 64 -55.667 104.5 -75 121.5s-50.666 25.5 -93.999 25.5h-23v-170h-49v392zM297.999 507.004
l-0.000976562 -141h65c26 0 47 1.33301 63 4s30.333 9.66699 43 21s19 27.333 19 48c0 20 -5.66699 35.333 -17 46s-24.166 17 -38.499 19s-34.833 3 -61.5 3h-73zM399.998 728.004c102.667 0 190.5 -36.333 263.5 -109s109.5 -160.667 109.5 -264
c0 -102.667 -36.5 -190.5 -109.5 -263.5s-160.833 -109.5 -263.5 -109.5s-190.5 36.333 -263.5 109s-109.5 160.667 -109.5 264c0 104 36.5 192.167 109.5 264.5s160.833 108.5 263.5 108.5zM399.998 683.004c-90 0 -167.167 -31.833 -231.5 -95.5
s-96.5 -141.167 -96.5 -232.5c0 -90.667 32 -168 96 -232s141.333 -96 232 -96s168 32 232 96s96 141.333 96 232c0 91.333 -32.167 168.833 -96.5 232.5s-141.5 95.5 -231.5 95.5z" />
    <glyph glyph-name="macron" unicode="&#xaf;" horiz-adv-x="333" 
d="M19 653h295v-54h-295v54z" />
    <glyph glyph-name="degree" unicode="&#xb0;" horiz-adv-x="400" 
d="M200 728c38.667 0 71.667 -13.667 99 -41s41 -60.333 41 -99s-13.667 -71.667 -41 -99s-60.333 -41 -99 -41s-71.667 13.667 -99 41s-41 60.333 -41 99s13.667 71.667 41 99s60.333 41 99 41zM200 688c-27.333 0 -50.833 -9.66699 -70.5 -29s-29.5 -43 -29.5 -71
c0 -27.333 9.83301 -50.833 29.5 -70.5s43.167 -29.5 70.5 -29.5s50.833 9.83301 70.5 29.5s29.5 43.167 29.5 70.5c0 28 -9.83301 51.667 -29.5 71s-43.167 29 -70.5 29z" />
    <glyph glyph-name="plusminus" unicode="&#xb1;" 
d="M28 42h388v-42h-388v42zM28 373h173v173h42v-173h173v-42h-173v-173h-42v173h-173v42z" />
    <glyph glyph-name="twosuperior" unicode="&#xb2;" horiz-adv-x="266" 
d="M76 620l-50 3.00098c8 70 44.667 105 110 105c36 0 63 -10 81 -30s27 -43.667 27 -71c0 -23.333 -6.33301 -45.333 -19 -66s-34 -46 -64 -76c-34 -34 -57.667 -61 -71 -81h157v-42h-231c4 20.667 12 39.167 24 55.5s36.667 43.166 74 80.499c32 32 53.333 56.833 64 74.5
s16 35.834 16 54.501c0 16.667 -4 30 -12 40s-15.5 16.167 -22.5 18.5s-13.5 3.5 -19.5 3.5c-15.333 0 -28 -4.5 -38 -13.5s-16.167 -17.333 -18.5 -25s-4.83301 -17.834 -7.5 -30.501z" />
    <glyph glyph-name="threesuperior" unicode="&#xb3;" horiz-adv-x="266" 
d="M79 628l-44.998 4.00195c8.66699 64 41 96 97 96c20 0 37 -3.33301 51 -10s24 -15.334 30 -26.001s10 -20.167 12 -28.5s3 -16.5 3 -24.5c0 -37.333 -17.667 -64.333 -53 -81v-2c26 -4.66699 44.167 -16.667 54.5 -36s15.5 -38.333 15.5 -57
c0 -27.333 -9.16699 -53.333 -27.5 -78s-46.5 -37 -84.5 -37c-58 0 -93 33.667 -105 101l46 6c8 -44.667 28 -67 60 -67c14.667 0 28.5 6.16699 41.5 18.5s19.5 31.5 19.5 57.5c0 24.667 -6.66699 42.334 -20 53.001s-28.333 16 -45 16c-1.33301 0 -10 -1 -26 -3l5 39
c48 5.33301 72 27.333 72 66c0 14.667 -4.66699 27.167 -14 37.5s-21 15.5 -35 15.5c-8.66699 0 -16 -1.5 -22 -4.5s-10.667 -6.33301 -14 -10s-6.33301 -8.83398 -9 -15.501s-4.33398 -11.834 -5.00098 -15.501s-1.33398 -8.5 -2.00098 -14.5z" />
    <glyph glyph-name="acute" unicode="&#xb4;" horiz-adv-x="333" 
d="M260 714l-97 -128h-43l47 128h93z" />
    <glyph glyph-name="mu" unicode="&#xb5;" 
d="M66 518l58.999 -0.000976562v-370c0 -16 0.5 -28.5 1.5 -37.5s3.5 -20 7.5 -33s11.333 -22.667 22 -29s24.334 -9.5 41.001 -9.5c32.667 0 60.667 12.667 84 38c26 28.667 39 75.334 39 140.001v301h58v-518h-58v51c-40 -42.667 -80 -64 -120 -64
c-18 0 -43.333 5.66699 -76 17v-202h-58v716z" />
    <glyph glyph-name="paragraph" unicode="&#xb6;" horiz-adv-x="564" 
d="M548 716v-60.001h-54v-855h-60v855h-112v-855h-60v506c-70.667 -4 -125.667 14.333 -165 55s-59 91 -59 151c0 45.333 11.667 83.833 35 115.5s51.5 54.334 84.5 68.001s68.5 20.5 106.5 20.5l28 -1h256z" />
    <glyph glyph-name="periodcentered" unicode="&#xb7;" horiz-adv-x="222" 
d="M70 399h83v-94h-83v94z" />
    <glyph glyph-name="cedilla" unicode="&#xb8;" horiz-adv-x="333" 
d="M135 11h45l-19 -61c58.667 -4 88 -25.667 88 -65c0 -17.333 -5.33301 -31.833 -16 -43.5s-25 -20.167 -43 -25.5s-35.5 -8.83301 -52.5 -10.5s-34.833 -2.16699 -53.5 -1.5l3 39c68 0 102 16.333 102 49c0 26.667 -25.667 40 -77 40z" />
    <glyph glyph-name="onesuperior" unicode="&#xb9;" horiz-adv-x="266" 
d="M119 728h35.001v-366h-48v288c-26.667 -26 -58.334 -44.667 -95.001 -56v44c51.333 22 87.333 52 108 90z" />
    <glyph glyph-name="ordmasculine" unicode="&#xba;" horiz-adv-x="266" 
d="M23 539c0 16.667 0.166992 29.6689 0.5 39.002s1.5 22.666 3.5 39.999s5.33301 31.5 10 42.5s10.834 22.167 18.501 33.5s18.167 19.833 31.5 25.5s29 8.5 47 8.5c20 0 37.167 -4.33301 51.5 -13s25.166 -18.834 32.499 -30.501s13 -26.667 17 -45
s6.5 -34.166 7.5 -47.499s1.5 -29 1.5 -47c0 -13.333 -0.166992 -24.333 -0.5 -33s-1.5 -21.334 -3.5 -38.001s-5.33301 -30.5 -10 -41.5s-10.667 -22.5 -18 -34.5s-17.5 -21 -30.5 -27s-28.167 -9 -45.5 -9c-75.333 0 -113 59 -113 177zM71 541.002
c0 -18 0.331055 -32.666 0.998047 -43.999s2.83398 -25.833 6.50098 -43.5s10 -31 19 -40s20.833 -13.5 35.5 -13.5c14 0 25.5 3.83301 34.5 11.5s15.333 19.167 19 34.5s6.16699 30.333 7.5 45s2 33 2 55c0 22.667 -0.666992 41.667 -2 57s-4 30.166 -8 44.499
s-10.167 25 -18.5 32s-19.166 10.5 -32.499 10.5c-14.667 0 -26.5 -4 -35.5 -12s-15.5 -20.167 -19.5 -36.5s-6.5 -31.5 -7.5 -45.5s-1.5 -32.333 -1.5 -55z" />
    <glyph glyph-name="guillemotright" unicode="&#xbb;" horiz-adv-x="500" 
d="M307 478l151 -220l-151 -222h-44l129 222l-129 220h44zM101 478l151 -220l-151 -222h-44l129 222l-129 220h44z" />
    <glyph glyph-name="onequarter" unicode="&#xbc;" horiz-adv-x="666" 
d="M543 368h42v-241h46v-38h-46v-89h-42v89h-136v38zM451 127h92v169h-2zM156 728l29.999 0.000976562v-368h-46v297c-24 -22.667 -57.333 -42.334 -100 -59.001v40c44.667 23.333 83.334 53.333 116.001 90zM493.999 728.001h44l-375 -755h-44z" />
    <glyph glyph-name="onehalf" unicode="&#xbd;" horiz-adv-x="666" 
d="M452 260l-46.9961 3.00293c3.33301 39.333 15.833 66.666 37.5 81.999s46.167 23 73.5 23s52.166 -7.5 74.499 -22.5s33.5 -35.833 33.5 -62.5c0 -22.667 -7 -44.834 -21 -66.501s-39.667 -52.167 -77 -91.5c-22.667 -24.667 -37.834 -41.834 -45.501 -51.501
s-15.167 -21.834 -22.5 -36.501h161v-37h-225c2 19.333 8.83301 38 20.5 56s36.5 47.333 74.5 88l49.5 55c10.333 12 20.166 25.333 29.499 40s14 27.334 14 38.001c0 15.333 -6.33301 27.833 -19 37.5s-28 14.5 -46 14.5c-12 0 -22.167 -2.16699 -30.5 -6.5
s-14.833 -10.5 -19.5 -18.5s-7.83398 -15 -9.50098 -21s-3.5 -13.667 -5.5 -23zM146.004 728.003l29.999 0.000976562v-368h-46v297c-24 -22.667 -57.333 -42.334 -100 -59.001v40c44.667 23.333 83.334 53.333 116.001 90zM484.003 728.004h44l-375 -755h-44z" />
    <glyph glyph-name="threequarters" unicode="&#xbe;" horiz-adv-x="666" 
d="M76 629l-43 4.00195c8 63.333 40.667 95 98 95c28 0 50 -8 66 -24s24 -37.667 24 -65c0 -40 -19 -68 -57 -84c50.667 -19.333 76 -49.333 76 -90c0 -32.667 -10.667 -60.334 -32 -83.001s-48.666 -34 -81.999 -34c-6 0 -12 0.333008 -18 1s-14 3 -24 7
s-18.833 9.33301 -26.5 16s-14.834 17 -21.501 31s-11 30.667 -13 50l46 4c3.33301 -46 23.333 -69 60 -69c21.333 0 37 7.83301 47 23.5s15 32.834 15 51.501c0 22 -6 39 -18 51s-25.167 18.167 -39.5 18.5s-27.5 0.166016 -39.5 -0.500977l3 36
c15.333 -4 31.5 -0.833008 48.5 9.5s25.5 31.166 25.5 62.499c0 33.333 -14.667 50 -44 50c-28 0 -45 -20.333 -51 -61zM494 728.002h44l-375 -755h-44zM543 368.002h42v-241h46v-38h-46v-89h-42v89h-136v38zM451 127.002h92v169h-2z" />
    <glyph glyph-name="questiondown" unicode="&#xbf;" horiz-adv-x="389" 
d="M290 -18l63.0039 -0.00292969c-1.33301 -16 -2.83301 -29.167 -4.5 -39.5s-6.16699 -26.333 -13.5 -48s-16.5 -39 -27.5 -52s-27.167 -25 -48.5 -36s-46.333 -16.5 -75 -16.5c-44.667 0 -80.5 14.167 -107.5 42.5s-40.5 66.5 -40.5 114.5c0 53.333 23 115 69 185
c28.667 44 47.167 77.833 55.5 101.5s12.166 59.834 11.499 108.501h61c0.666992 -46 -3.33301 -84.667 -12 -116s-28.334 -70 -59.001 -116c-14 -21.333 -24.833 -38.5 -32.5 -51.5s-14.667 -29.333 -21 -49s-9.5 -39.5 -9.5 -59.5c0 -32 8.16699 -57.667 24.5 -77
s38.5 -29 66.5 -29c16.667 0 31 3.5 43 10.5s21.333 14.833 28 23.5s12.167 20.334 16.5 35.001s7.16602 26.334 8.49902 35.001s2.66602 20 3.99902 34zM241.004 423.997h-83v94h83v-94z" />
    <glyph glyph-name="Agrave" unicode="&#xc0;" horiz-adv-x="500" 
d="M205 692l72 24l223 -716h-71l-60 200h-246l-57 -200h-67zM138 254h215l-112 369zM182 894h80l27 -129h-43z" />
    <glyph glyph-name="Aacute" unicode="&#xc1;" horiz-adv-x="500" 
d="M205 692l72 24l223 -716h-71l-60 200h-246l-57 -200h-67zM138 254h215l-112 369zM344 894l-97 -128h-43l47 128h93z" />
    <glyph glyph-name="Acircumflex" unicode="&#xc2;" horiz-adv-x="500" 
d="M205 692l72 24l223 -716h-71l-60 200h-246l-57 -200h-67zM138 254h215l-112 369zM287 893l87 -127h-61l-64 93l-61 -93h-61l87 127h73z" />
    <glyph glyph-name="Atilde" unicode="&#xc3;" horiz-adv-x="500" 
d="M205 692l72 24l223 -716h-71l-60 200h-246l-57 -200h-67zM138 254h215l-112 369zM342 873l40 0.00195312c0 -25.333 -5 -47 -15 -65s-25.667 -27 -47 -27c-16.667 0 -39.667 7 -69 21c-28 14 -47.333 21 -58 21c-8 0 -14.5 -2.5 -19.5 -7.5s-8.16699 -9.83301 -9.5 -14.5
s-2.66602 -11.334 -3.99902 -20.001h-41c0 6.66699 0.5 13.667 1.5 21s3.33301 17.166 7 29.499s10.5 22.333 20.5 30s22 11.5 36 11.5s38 -7.66699 72 -23c28 -12.667 46.333 -19 55 -19c17.333 0 27.666 14 30.999 42z" />
    <glyph glyph-name="Adieresis" unicode="&#xc4;" horiz-adv-x="500" 
d="M205 692l72 24l223 -716h-71l-60 200h-246l-57 -200h-67zM138 254h215l-112 369zM145 857h60v-85h-60v85zM296 857h60v-85h-60v85z" />
    <glyph glyph-name="Aring" unicode="&#xc5;" horiz-adv-x="500" 
d="M205 692l72 24l223 -716h-71l-60 200h-246l-57 -200h-67zM138 254h215l-112 369zM250 919c24.667 0 45.499 -8.5 62.499 -25.5s25.5 -37.5 25.5 -61.5c0 -24.667 -8.5 -45.5 -25.5 -62.5s-37.833 -25.5 -62.5 -25.5c-24 0 -44.5 8.66699 -61.5 26s-25.5 38 -25.5 62
s8.33301 44.5 25 61.5s37.334 25.5 62.001 25.5zM250.999 887c-14.667 0 -27.667 -5 -39 -15s-17 -23.667 -17 -41c0 -16 5.33301 -29.167 16 -39.5s24 -15.5 40 -15.5c15.333 0 28.333 5.33301 39 16s16 23.667 16 39s-5.33301 28.5 -16 39.5s-23.667 16.5 -39 16.5z" />
    <glyph glyph-name="AE" unicode="&#xc6;" horiz-adv-x="722" 
d="M259 716h400v-57h-236v-263h209v-57h-209v-282h248v-57h-313v218h-212l-78 -218h-67zM358 275v384h-56l-137 -384h193z" />
    <glyph glyph-name="Ccedilla" unicode="&#xc7;" horiz-adv-x="556" 
d="M509 518l-62.999 -14.999c-3.33301 18.667 -7.83301 36.167 -13.5 52.5s-14.167 34.333 -25.5 54s-27.333 35.334 -48 47.001s-44.667 17.5 -72 17.5c-33.333 0 -61.333 -8 -84 -24s-40 -39 -52 -69s-20.5 -62.5 -25.5 -97.5s-7.5 -75.5 -7.5 -121.5
c0 -44.667 2.33301 -84.334 7 -119.001s12.667 -68 24 -100s28.5 -56.833 51.5 -74.5s51.5 -26.5 85.5 -26.5c20 0 38 3 54 9s29.5 15 40.5 27s20.5 24 28.5 36s14.667 26.667 20 44s9.33301 31.166 12 41.499s5.33398 23.5 8.00098 39.5l62 -13
c-21.333 -152 -91 -231.333 -209 -238l-8 -32c42.667 -10 64 -33 64 -69c0 -63.333 -53.333 -93 -160 -89l3 38c68 -4 102 12 102 48c0 26 -22.333 41 -67 45l20 61c-137.333 16 -206 136.667 -206 362c0 22.667 0.166992 41 0.5 55s2 35.667 5 65s7.33301 53.833 13 73.5
s14.5 42 26.5 67s26.167 45.167 42.5 60.5s37.666 28.333 63.999 39s56.166 16 89.499 16c116 0 188.667 -70 218 -210z" />
    <glyph glyph-name="Egrave" unicode="&#xc8;" 
d="M82 716l309 -1v-57l-244 1v-269h225v-51h-225v-282h257v-57h-322v716zM154 894h80l27 -129h-43z" />
    <glyph glyph-name="Eacute" unicode="&#xc9;" 
d="M82 716l309 -1v-57l-244 1v-269h225v-51h-225v-282h257v-57h-322v716zM316 894l-97 -128h-43l47 128h93z" />
    <glyph glyph-name="Ecircumflex" unicode="&#xca;" 
d="M82 716l309 -1v-57l-244 1v-269h225v-51h-225v-282h257v-57h-322v716zM259 893l87 -127h-61l-64 93l-61 -93h-61l87 127h73z" />
    <glyph glyph-name="Edieresis" unicode="&#xcb;" 
d="M82 716l309 -1v-57l-244 1v-269h225v-51h-225v-282h257v-57h-322v716zM117 857h60v-85h-60v85zM268 857h60v-85h-60v85z" />
    <glyph glyph-name="Igrave" unicode="&#xcc;" horiz-adv-x="222" 
d="M79 697l65 19v-716h-65v697zM43 894h80l27 -129h-43z" />
    <glyph glyph-name="Iacute" unicode="&#xcd;" horiz-adv-x="222" 
d="M79 697l65 19v-716h-65v697zM205 894l-97 -128h-43l47 128h93z" />
    <glyph glyph-name="Icircumflex" unicode="&#xce;" horiz-adv-x="222" 
d="M79 697l65 19v-716h-65v697zM148 893l87 -127h-61l-64 93l-61 -93h-61l87 127h73z" />
    <glyph glyph-name="Idieresis" unicode="&#xcf;" horiz-adv-x="222" 
d="M79 697l65 19v-716h-65v697zM6 857h60v-85h-60v85zM157 857h60v-85h-60v85z" />
    <glyph glyph-name="Eth" unicode="&#xd0;" horiz-adv-x="556" 
d="M83 387v328.999h127c37.333 0 68.333 -1.5 93 -4.5s51 -11 79 -24s50.333 -31.167 67 -54.5s30.5 -56.166 41.5 -98.499s16.5 -93.833 16.5 -154.5c0 -85.333 -4.66699 -147.5 -14 -186.5s-24.666 -73.833 -45.999 -104.5c-18.667 -26 -41.5 -46 -68.5 -60
s-50.833 -22.333 -71.5 -25s-46.334 -4 -77.001 -4h-147v330h-82v57h82zM148 658.999v-271.999h147v-57h-147v-273h65c48 -0.666992 87 5.16602 117 17.499s53 32.833 69 61.5s26.667 60.667 32 96s8 81 8 137c0 36.667 -1.33301 68.167 -4 94.5s-8.16699 52.5 -16.5 78.5
s-19.666 47 -33.999 63s-33.833 29 -58.5 39s-54.334 15 -89.001 15h-89z" />
    <glyph glyph-name="Ntilde" unicode="&#xd1;" horiz-adv-x="556" 
d="M81 690l81 26l252 -634v634h61v-716h-84l-249 613v-613h-61v690zM370 873l40 0.00195312c0 -25.333 -5 -47 -15 -65s-25.667 -27 -47 -27c-16.667 0 -39.667 7 -69 21c-28 14 -47.333 21 -58 21c-8 0 -14.5 -2.5 -19.5 -7.5s-8.16699 -9.83301 -9.5 -14.5
s-2.66602 -11.334 -3.99902 -20.001h-41c0 6.66699 0.5 13.667 1.5 21s3.33301 17.166 7 29.499s10.5 22.333 20.5 30s22 11.5 36 11.5s38 -7.66699 72 -23c28 -12.667 46.333 -19 55 -19c17.333 0 27.666 14 30.999 42z" />
    <glyph glyph-name="Ograve" unicode="&#xd2;" horiz-adv-x="556" 
d="M51 361c0 95.333 7.66113 165.334 22.9941 210.001c36.667 104.667 105.334 157 206.001 157c30 0 57 -4.83301 81 -14.5s43.833 -21.834 59.5 -36.501s29 -33.5 40 -56.5s19.333 -44.5 25 -64.5s10 -44.167 13 -72.5s4.83301 -51.166 5.5 -68.499s1 -38 1 -62
c0 -21.333 -0.166992 -39.5 -0.5 -54.5s-2.16602 -35.667 -5.49902 -62s-7.66602 -49.166 -12.999 -68.499s-13.666 -40.166 -24.999 -62.499s-24.666 -40.666 -39.999 -54.999s-35.166 -26.333 -59.499 -36s-51.833 -14.5 -82.5 -14.5s-58.167 4.66699 -82.5 14
s-44.333 21 -60 35s-29.167 32.167 -40.5 54.5s-19.833 43.166 -25.5 62.499s-10 42.666 -13 69.999s-4.83301 49.166 -5.5 65.499s-1 36.166 -1 59.499zM118.994 359.001c0 -115.333 12.998 -197.667 38.998 -247c10 -18.667 26 -35 48 -49s46.333 -21 73 -21
c21.333 0 40.5 4.16699 57.5 12.5s30.833 18.5 41.5 30.5s20 27.833 28 47.5s14 37.834 18 54.501s7 37.334 9 62.001s3.16699 44.5 3.5 59.5s0.5 33.5 0.5 55.5c0 30 -0.5 56.167 -1.5 78.5s-4.5 50 -10.5 83s-14.167 60.167 -24.5 81.5s-25.666 39.833 -45.999 55.5
s-44.833 23.5 -73.5 23.5c-33.333 0 -61.166 -9.16699 -83.499 -27.5s-39 -44.333 -50 -78s-18.5 -67.834 -22.5 -102.501s-6 -74.334 -6 -119.001zM209.992 894h80l27 -129h-43z" />
    <glyph glyph-name="Oacute" unicode="&#xd3;" horiz-adv-x="556" 
d="M51 361c0 95.333 7.66113 165.334 22.9941 210.001c36.667 104.667 105.334 157 206.001 157c30 0 57 -4.83301 81 -14.5s43.833 -21.834 59.5 -36.501s29 -33.5 40 -56.5s19.333 -44.5 25 -64.5s10 -44.167 13 -72.5s4.83301 -51.166 5.5 -68.499s1 -38 1 -62
c0 -21.333 -0.166992 -39.5 -0.5 -54.5s-2.16602 -35.667 -5.49902 -62s-7.66602 -49.166 -12.999 -68.499s-13.666 -40.166 -24.999 -62.499s-24.666 -40.666 -39.999 -54.999s-35.166 -26.333 -59.499 -36s-51.833 -14.5 -82.5 -14.5s-58.167 4.66699 -82.5 14
s-44.333 21 -60 35s-29.167 32.167 -40.5 54.5s-19.833 43.166 -25.5 62.499s-10 42.666 -13 69.999s-4.83301 49.166 -5.5 65.499s-1 36.166 -1 59.499zM118.994 359.001c0 -115.333 12.998 -197.667 38.998 -247c10 -18.667 26 -35 48 -49s46.333 -21 73 -21
c21.333 0 40.5 4.16699 57.5 12.5s30.833 18.5 41.5 30.5s20 27.833 28 47.5s14 37.834 18 54.501s7 37.334 9 62.001s3.16699 44.5 3.5 59.5s0.5 33.5 0.5 55.5c0 30 -0.5 56.167 -1.5 78.5s-4.5 50 -10.5 83s-14.167 60.167 -24.5 81.5s-25.666 39.833 -45.999 55.5
s-44.833 23.5 -73.5 23.5c-33.333 0 -61.166 -9.16699 -83.499 -27.5s-39 -44.333 -50 -78s-18.5 -67.834 -22.5 -102.501s-6 -74.334 -6 -119.001zM371.992 894l-97 -128h-43l47 128h93z" />
    <glyph glyph-name="Ocircumflex" unicode="&#xd4;" horiz-adv-x="556" 
d="M51 361c0 95.333 7.66113 165.334 22.9941 210.001c36.667 104.667 105.334 157 206.001 157c30 0 57 -4.83301 81 -14.5s43.833 -21.834 59.5 -36.501s29 -33.5 40 -56.5s19.333 -44.5 25 -64.5s10 -44.167 13 -72.5s4.83301 -51.166 5.5 -68.499s1 -38 1 -62
c0 -21.333 -0.166992 -39.5 -0.5 -54.5s-2.16602 -35.667 -5.49902 -62s-7.66602 -49.166 -12.999 -68.499s-13.666 -40.166 -24.999 -62.499s-24.666 -40.666 -39.999 -54.999s-35.166 -26.333 -59.499 -36s-51.833 -14.5 -82.5 -14.5s-58.167 4.66699 -82.5 14
s-44.333 21 -60 35s-29.167 32.167 -40.5 54.5s-19.833 43.166 -25.5 62.499s-10 42.666 -13 69.999s-4.83301 49.166 -5.5 65.499s-1 36.166 -1 59.499zM118.994 359.001c0 -115.333 12.998 -197.667 38.998 -247c10 -18.667 26 -35 48 -49s46.333 -21 73 -21
c21.333 0 40.5 4.16699 57.5 12.5s30.833 18.5 41.5 30.5s20 27.833 28 47.5s14 37.834 18 54.501s7 37.334 9 62.001s3.16699 44.5 3.5 59.5s0.5 33.5 0.5 55.5c0 30 -0.5 56.167 -1.5 78.5s-4.5 50 -10.5 83s-14.167 60.167 -24.5 81.5s-25.666 39.833 -45.999 55.5
s-44.833 23.5 -73.5 23.5c-33.333 0 -61.166 -9.16699 -83.499 -27.5s-39 -44.333 -50 -78s-18.5 -67.834 -22.5 -102.501s-6 -74.334 -6 -119.001zM314.992 893l87 -127h-61l-64 93l-61 -93h-61l87 127h73z" />
    <glyph glyph-name="Otilde" unicode="&#xd5;" horiz-adv-x="556" 
d="M51 361c0 95.333 7.66113 165.334 22.9941 210.001c36.667 104.667 105.334 157 206.001 157c30 0 57 -4.83301 81 -14.5s43.833 -21.834 59.5 -36.501s29 -33.5 40 -56.5s19.333 -44.5 25 -64.5s10 -44.167 13 -72.5s4.83301 -51.166 5.5 -68.499s1 -38 1 -62
c0 -21.333 -0.166992 -39.5 -0.5 -54.5s-2.16602 -35.667 -5.49902 -62s-7.66602 -49.166 -12.999 -68.499s-13.666 -40.166 -24.999 -62.499s-24.666 -40.666 -39.999 -54.999s-35.166 -26.333 -59.499 -36s-51.833 -14.5 -82.5 -14.5s-58.167 4.66699 -82.5 14
s-44.333 21 -60 35s-29.167 32.167 -40.5 54.5s-19.833 43.166 -25.5 62.499s-10 42.666 -13 69.999s-4.83301 49.166 -5.5 65.499s-1 36.166 -1 59.499zM118.994 359.001c0 -115.333 12.998 -197.667 38.998 -247c10 -18.667 26 -35 48 -49s46.333 -21 73 -21
c21.333 0 40.5 4.16699 57.5 12.5s30.833 18.5 41.5 30.5s20 27.833 28 47.5s14 37.834 18 54.501s7 37.334 9 62.001s3.16699 44.5 3.5 59.5s0.5 33.5 0.5 55.5c0 30 -0.5 56.167 -1.5 78.5s-4.5 50 -10.5 83s-14.167 60.167 -24.5 81.5s-25.666 39.833 -45.999 55.5
s-44.833 23.5 -73.5 23.5c-33.333 0 -61.166 -9.16699 -83.499 -27.5s-39 -44.333 -50 -78s-18.5 -67.834 -22.5 -102.501s-6 -74.334 -6 -119.001zM369.992 873l40 0.00195312c0 -25.333 -5 -47 -15 -65s-25.667 -27 -47 -27c-16.667 0 -39.667 7 -69 21
c-28 14 -47.333 21 -58 21c-8 0 -14.5 -2.5 -19.5 -7.5s-8.16699 -9.83301 -9.5 -14.5s-2.66602 -11.334 -3.99902 -20.001h-41c0 6.66699 0.5 13.667 1.5 21s3.33301 17.166 7 29.499s10.5 22.333 20.5 30s22 11.5 36 11.5s38 -7.66699 72 -23
c28 -12.667 46.333 -19 55 -19c17.333 0 27.666 14 30.999 42z" />
    <glyph glyph-name="Odieresis" unicode="&#xd6;" horiz-adv-x="556" 
d="M51 361c0 95.333 7.66113 165.334 22.9941 210.001c36.667 104.667 105.334 157 206.001 157c30 0 57 -4.83301 81 -14.5s43.833 -21.834 59.5 -36.501s29 -33.5 40 -56.5s19.333 -44.5 25 -64.5s10 -44.167 13 -72.5s4.83301 -51.166 5.5 -68.499s1 -38 1 -62
c0 -21.333 -0.166992 -39.5 -0.5 -54.5s-2.16602 -35.667 -5.49902 -62s-7.66602 -49.166 -12.999 -68.499s-13.666 -40.166 -24.999 -62.499s-24.666 -40.666 -39.999 -54.999s-35.166 -26.333 -59.499 -36s-51.833 -14.5 -82.5 -14.5s-58.167 4.66699 -82.5 14
s-44.333 21 -60 35s-29.167 32.167 -40.5 54.5s-19.833 43.166 -25.5 62.499s-10 42.666 -13 69.999s-4.83301 49.166 -5.5 65.499s-1 36.166 -1 59.499zM118.994 359.001c0 -115.333 12.998 -197.667 38.998 -247c10 -18.667 26 -35 48 -49s46.333 -21 73 -21
c21.333 0 40.5 4.16699 57.5 12.5s30.833 18.5 41.5 30.5s20 27.833 28 47.5s14 37.834 18 54.501s7 37.334 9 62.001s3.16699 44.5 3.5 59.5s0.5 33.5 0.5 55.5c0 30 -0.5 56.167 -1.5 78.5s-4.5 50 -10.5 83s-14.167 60.167 -24.5 81.5s-25.666 39.833 -45.999 55.5
s-44.833 23.5 -73.5 23.5c-33.333 0 -61.166 -9.16699 -83.499 -27.5s-39 -44.333 -50 -78s-18.5 -67.834 -22.5 -102.501s-6 -74.334 -6 -119.001zM172.992 857h60v-85h-60v85zM323.992 857h60v-85h-60v85z" />
    <glyph glyph-name="multiply" unicode="&#xd7;" 
d="M93 543l128 -159l132 157l32 -25l-138 -164l133 -164l-29 -28l-130 160l-131 -159l-30 31l135 160l-135 166z" />
    <glyph glyph-name="Oslash" unicode="&#xd8;" horiz-adv-x="556" 
d="M122 54l-44.9971 -75.002l-37 21l56 94c-30 58.667 -45 144.334 -45 257.001c0 100.667 7.66699 174 23 220c35.333 104.667 103.666 157 204.999 157c65.333 0 117 -22 155 -66l45 77l37 -23l-55 -94c29.333 -60 44 -148.333 44 -265c0 -21.333 -0.166992 -39 -0.5 -53
s-2 -35.167 -5 -63.5s-7.16699 -52.333 -12.5 -72s-13.5 -41.667 -24.5 -66s-24.333 -44.166 -40 -59.499s-35.834 -28.333 -60.501 -39s-52.334 -16 -83.001 -16c-66.667 0 -119 22 -157 66zM418.003 550.998l-261.001 -438.001
c12.667 -22.667 30.334 -40.167 53.001 -52.5s46 -18.5 70 -18.5c21.333 0 40.333 4.16699 57 12.5s30.5 18.5 41.5 30.5s20.333 27.833 28 47.5s13.5 38 17.5 55s7 37.667 9 62s3.16699 43.833 3.5 58.5s0.5 33 0.5 55c0 84.667 -6.33301 147.334 -19 188.001z
M137.002 163.997l260.996 436.998c-26 48.667 -65.333 73 -118 73c-24 0 -45.167 -4.33301 -63.5 -13s-33.166 -21.667 -44.499 -39s-20.666 -35.666 -27.999 -54.999s-12.666 -42.5 -15.999 -69.5s-5.66602 -51.667 -6.99902 -74s-2 -48.166 -2 -77.499
c0 -80 6 -140.667 18 -182z" />
    <glyph glyph-name="Ugrave" unicode="&#xd9;" horiz-adv-x="556" 
d="M88 696l66.002 25.0029v-493c0 -15.333 0.166992 -27.333 0.5 -36s1.66602 -21.334 3.99902 -38.001s6.33301 -30.334 12 -41.001s13 -21.5 22 -32.5s21.5 -19.333 37.5 -25s34.333 -8.5 55 -8.5c54 0 92.333 22.333 115 67c10.667 22 16 70.333 16 145v462h65v-467
c0 -55.333 -3.33301 -97 -10 -125c-20 -86 -82 -129 -186 -129c-26.667 0 -50.667 3.16699 -72 9.5s-38.666 14 -51.999 23s-24.833 21.167 -34.5 36.5s-16.834 29.166 -21.501 41.499s-8.33398 28 -11.001 47s-4.16699 33.5 -4.5 43.5s-0.5 23.333 -0.5 40z
M210.002 894.003h80l27 -129h-43z" />
    <glyph glyph-name="Uacute" unicode="&#xda;" horiz-adv-x="556" 
d="M88 696l66.002 25.0029v-493c0 -15.333 0.166992 -27.333 0.5 -36s1.66602 -21.334 3.99902 -38.001s6.33301 -30.334 12 -41.001s13 -21.5 22 -32.5s21.5 -19.333 37.5 -25s34.333 -8.5 55 -8.5c54 0 92.333 22.333 115 67c10.667 22 16 70.333 16 145v462h65v-467
c0 -55.333 -3.33301 -97 -10 -125c-20 -86 -82 -129 -186 -129c-26.667 0 -50.667 3.16699 -72 9.5s-38.666 14 -51.999 23s-24.833 21.167 -34.5 36.5s-16.834 29.166 -21.501 41.499s-8.33398 28 -11.001 47s-4.16699 33.5 -4.5 43.5s-0.5 23.333 -0.5 40z
M372.002 894.003l-97 -128h-43l47 128h93z" />
    <glyph glyph-name="Ucircumflex" unicode="&#xdb;" horiz-adv-x="556" 
d="M88 696l66.002 25.0029v-493c0 -15.333 0.166992 -27.333 0.5 -36s1.66602 -21.334 3.99902 -38.001s6.33301 -30.334 12 -41.001s13 -21.5 22 -32.5s21.5 -19.333 37.5 -25s34.333 -8.5 55 -8.5c54 0 92.333 22.333 115 67c10.667 22 16 70.333 16 145v462h65v-467
c0 -55.333 -3.33301 -97 -10 -125c-20 -86 -82 -129 -186 -129c-26.667 0 -50.667 3.16699 -72 9.5s-38.666 14 -51.999 23s-24.833 21.167 -34.5 36.5s-16.834 29.166 -21.501 41.499s-8.33398 28 -11.001 47s-4.16699 33.5 -4.5 43.5s-0.5 23.333 -0.5 40z
M315.002 893.003l87 -127h-61l-64 93l-61 -93h-61l87 127h73z" />
    <glyph glyph-name="Udieresis" unicode="&#xdc;" horiz-adv-x="556" 
d="M88 696l66.002 25.0029v-493c0 -15.333 0.166992 -27.333 0.5 -36s1.66602 -21.334 3.99902 -38.001s6.33301 -30.334 12 -41.001s13 -21.5 22 -32.5s21.5 -19.333 37.5 -25s34.333 -8.5 55 -8.5c54 0 92.333 22.333 115 67c10.667 22 16 70.333 16 145v462h65v-467
c0 -55.333 -3.33301 -97 -10 -125c-20 -86 -82 -129 -186 -129c-26.667 0 -50.667 3.16699 -72 9.5s-38.666 14 -51.999 23s-24.833 21.167 -34.5 36.5s-16.834 29.166 -21.501 41.499s-8.33398 28 -11.001 47s-4.16699 33.5 -4.5 43.5s-0.5 23.333 -0.5 40z
M173.002 857.003h60v-85h-60v85zM324.002 857.003h60v-85h-60v85z" />
    <glyph glyph-name="Yacute" unicode="&#xdd;" horiz-adv-x="500" 
d="M7 716h74l168 -354l173 354h71l-216 -408v-308h-65v308zM344 894l-97 -128h-43l47 128h93z" />
    <glyph glyph-name="Thorn" unicode="&#xde;" horiz-adv-x="500" 
d="M82 716l65 0.000976562v-156h71c59.333 0 105.333 -7.66699 138 -23c68.667 -32.667 103 -93.334 103 -182.001c0 -86 -36 -145.667 -108 -179c-31.333 -14.667 -79.333 -22 -144 -22h-60v-154h-65v716zM147 503.001l-0.000976562 -291.999h42c22 0 39.333 0.333008 52 1
s29.834 3.5 51.501 8.5s38.667 12.333 51 22s23.333 24.167 33 43.5s14.5 43 14.5 71c0 23.333 -3.16699 43.833 -9.5 61.5s-15.5 31.5 -27.5 41.5s-23.667 18.167 -35 24.5s-25.5 10.666 -42.5 12.999s-29.833 3.83301 -38.5 4.5s-19.667 1 -33 1h-58z" />
    <glyph glyph-name="germandbls" unicode="&#xdf;" 
d="M157 101l62.0029 -1.00098c19.333 -38.667 42.333 -58 69 -58c18.667 0 34.667 8.16699 48 24.5s20 35.5 20 57.5c0 17.333 -5 35.833 -15 55.5s-20.5 36.334 -31.5 50.001s-27.167 32.167 -48.5 55.5c-20 22 -34.333 39.667 -43 53s-13 27.333 -13 42
c0 2.66699 0.5 5.66699 1.5 9s3 7.83301 6 13.5s6.16699 11.334 9.5 17.001l15.5 27l20.5 36.5c19.333 35.333 32 60 38 74s9 29 9 45c0 18 -9.5 35.167 -28.5 51.5s-40.5 24.5 -64.5 24.5c-16.667 0 -31 -3.83301 -43 -11.5s-20.667 -16.167 -26 -25.5s-9.5 -22 -12.5 -38
s-4.66699 -27.5 -5 -34.5s-0.5 -17.167 -0.5 -30.5v-538h-58v545c0 20 0.666992 37 2 51s4.66602 30 9.99902 48s13 32.5 23 43.5s24.5 20.5 43.5 28.5s41.5 12 67.5 12c25.333 0 47.833 -4 67.5 -12s34.5 -17.5 44.5 -28.5s18.167 -22.833 24.5 -35.5
s10.166 -22.5 11.499 -29.5s2 -11.833 2 -14.5c0 -36 -16 -82.667 -48 -140c-6 -11.333 -13.167 -23 -21.5 -35l-19 -28c-4.33301 -6.66699 -6.5 -12.334 -6.5 -17.001c0 -10 2.83301 -19.167 8.5 -27.5s22.5 -28.833 50.5 -61.5c33.333 -38.667 56.166 -70 68.499 -94
s18.5 -49.667 18.5 -77c0 -42.667 -12.5 -76.667 -37.5 -102s-55.167 -38 -90.5 -38c-27.333 0 -54 11.667 -80 35s-42.333 49.333 -49 78z" />
    <glyph glyph-name="agrave" unicode="&#xe0;" horiz-adv-x="389" 
d="M47 381c6 46.667 17.6709 80.3369 35.0039 101.004c23.333 29.333 59 44 107 44c25.333 0 47.166 -4.33301 65.499 -13s32.166 -18.834 41.499 -30.501s16.5 -26.834 21.5 -45.501s8 -34.167 9 -46.5s1.5 -27.166 1.5 -44.499v-201c0 -34.667 2.16699 -60.167 6.5 -76.5
s13.833 -39.166 28.5 -68.499h-66c-6.66699 20 -11.334 35.333 -14.001 46c-24 -32.667 -61.667 -49 -113 -49c-36.667 0 -67.5 10.667 -92.5 32s-37.5 55 -37.5 101c0 43.333 11.333 77.833 34 103.5s60.667 47.5 114 65.5c36.667 12.667 64.334 24.667 83.001 36l-1 26
c0 19.333 -0.666992 35 -2 47s-4.5 25.167 -9.5 39.5s-13.333 25.166 -25 32.499s-26.834 11 -45.501 11c-7.33301 0 -14.333 -0.833008 -21 -2.5s-12.334 -4.33398 -17.001 -8.00098s-9 -7.5 -13 -11.5s-7.5 -9 -10.5 -15l-7.5 -15.5c-2 -4.33301 -3.83301 -10 -5.5 -17
l-3.5 -15c-0.666992 -3 -1.5 -7.83301 -2.5 -14.5s-1.5 -10.334 -1.5 -11.001c-0.666992 -0.666992 -2.66699 -1 -6 -1c-13.333 1.33301 -31 1.66602 -53 0.999023zM271.004 297.003c-34.667 -16.667 -55.667 -26.334 -63 -29.001c-72 -28.667 -108 -72.667 -108 -132
c0 -28 7.5 -51.333 22.5 -70s32.833 -28 53.5 -28c14 0 28.5 5.33301 43.5 16s26.167 23.334 33.5 38.001c8 16.667 13 38.5 15 65.5s3 73.5 3 139.5zM126.004 714.003h80l27 -129h-43z" />
    <glyph glyph-name="aacute" unicode="&#xe1;" horiz-adv-x="389" 
d="M47 381c6 46.667 17.6709 80.3369 35.0039 101.004c23.333 29.333 59 44 107 44c25.333 0 47.166 -4.33301 65.499 -13s32.166 -18.834 41.499 -30.501s16.5 -26.834 21.5 -45.501s8 -34.167 9 -46.5s1.5 -27.166 1.5 -44.499v-201c0 -34.667 2.16699 -60.167 6.5 -76.5
s13.833 -39.166 28.5 -68.499h-66c-6.66699 20 -11.334 35.333 -14.001 46c-24 -32.667 -61.667 -49 -113 -49c-36.667 0 -67.5 10.667 -92.5 32s-37.5 55 -37.5 101c0 43.333 11.333 77.833 34 103.5s60.667 47.5 114 65.5c36.667 12.667 64.334 24.667 83.001 36l-1 26
c0 19.333 -0.666992 35 -2 47s-4.5 25.167 -9.5 39.5s-13.333 25.166 -25 32.499s-26.834 11 -45.501 11c-7.33301 0 -14.333 -0.833008 -21 -2.5s-12.334 -4.33398 -17.001 -8.00098s-9 -7.5 -13 -11.5s-7.5 -9 -10.5 -15l-7.5 -15.5c-2 -4.33301 -3.83301 -10 -5.5 -17
l-3.5 -15c-0.666992 -3 -1.5 -7.83301 -2.5 -14.5s-1.5 -10.334 -1.5 -11.001c-0.666992 -0.666992 -2.66699 -1 -6 -1c-13.333 1.33301 -31 1.66602 -53 0.999023zM271.004 297.003c-34.667 -16.667 -55.667 -26.334 -63 -29.001c-72 -28.667 -108 -72.667 -108 -132
c0 -28 7.5 -51.333 22.5 -70s32.833 -28 53.5 -28c14 0 28.5 5.33301 43.5 16s26.167 23.334 33.5 38.001c8 16.667 13 38.5 15 65.5s3 73.5 3 139.5zM288.004 714.003l-97 -128h-43l47 128h93z" />
    <glyph glyph-name="acircumflex" unicode="&#xe2;" horiz-adv-x="389" 
d="M47 381c6 46.667 17.6709 80.3369 35.0039 101.004c23.333 29.333 59 44 107 44c25.333 0 47.166 -4.33301 65.499 -13s32.166 -18.834 41.499 -30.501s16.5 -26.834 21.5 -45.501s8 -34.167 9 -46.5s1.5 -27.166 1.5 -44.499v-201c0 -34.667 2.16699 -60.167 6.5 -76.5
s13.833 -39.166 28.5 -68.499h-66c-6.66699 20 -11.334 35.333 -14.001 46c-24 -32.667 -61.667 -49 -113 -49c-36.667 0 -67.5 10.667 -92.5 32s-37.5 55 -37.5 101c0 43.333 11.333 77.833 34 103.5s60.667 47.5 114 65.5c36.667 12.667 64.334 24.667 83.001 36l-1 26
c0 19.333 -0.666992 35 -2 47s-4.5 25.167 -9.5 39.5s-13.333 25.166 -25 32.499s-26.834 11 -45.501 11c-7.33301 0 -14.333 -0.833008 -21 -2.5s-12.334 -4.33398 -17.001 -8.00098s-9 -7.5 -13 -11.5s-7.5 -9 -10.5 -15l-7.5 -15.5c-2 -4.33301 -3.83301 -10 -5.5 -17
l-3.5 -15c-0.666992 -3 -1.5 -7.83301 -2.5 -14.5s-1.5 -10.334 -1.5 -11.001c-0.666992 -0.666992 -2.66699 -1 -6 -1c-13.333 1.33301 -31 1.66602 -53 0.999023zM271.004 297.003c-34.667 -16.667 -55.667 -26.334 -63 -29.001c-72 -28.667 -108 -72.667 -108 -132
c0 -28 7.5 -51.333 22.5 -70s32.833 -28 53.5 -28c14 0 28.5 5.33301 43.5 16s26.167 23.334 33.5 38.001c8 16.667 13 38.5 15 65.5s3 73.5 3 139.5zM231.004 713.003l87 -127h-61l-64 93l-61 -93h-61l87 127h73z" />
    <glyph glyph-name="atilde" unicode="&#xe3;" horiz-adv-x="389" 
d="M47 381c6 46.667 17.6709 80.3369 35.0039 101.004c23.333 29.333 59 44 107 44c25.333 0 47.166 -4.33301 65.499 -13s32.166 -18.834 41.499 -30.501s16.5 -26.834 21.5 -45.501s8 -34.167 9 -46.5s1.5 -27.166 1.5 -44.499v-201c0 -34.667 2.16699 -60.167 6.5 -76.5
s13.833 -39.166 28.5 -68.499h-66c-6.66699 20 -11.334 35.333 -14.001 46c-24 -32.667 -61.667 -49 -113 -49c-36.667 0 -67.5 10.667 -92.5 32s-37.5 55 -37.5 101c0 43.333 11.333 77.833 34 103.5s60.667 47.5 114 65.5c36.667 12.667 64.334 24.667 83.001 36l-1 26
c0 19.333 -0.666992 35 -2 47s-4.5 25.167 -9.5 39.5s-13.333 25.166 -25 32.499s-26.834 11 -45.501 11c-7.33301 0 -14.333 -0.833008 -21 -2.5s-12.334 -4.33398 -17.001 -8.00098s-9 -7.5 -13 -11.5s-7.5 -9 -10.5 -15l-7.5 -15.5c-2 -4.33301 -3.83301 -10 -5.5 -17
l-3.5 -15c-0.666992 -3 -1.5 -7.83301 -2.5 -14.5s-1.5 -10.334 -1.5 -11.001c-0.666992 -0.666992 -2.66699 -1 -6 -1c-13.333 1.33301 -31 1.66602 -53 0.999023zM271.004 297.003c-34.667 -16.667 -55.667 -26.334 -63 -29.001c-72 -28.667 -108 -72.667 -108 -132
c0 -28 7.5 -51.333 22.5 -70s32.833 -28 53.5 -28c14 0 28.5 5.33301 43.5 16s26.167 23.334 33.5 38.001c8 16.667 13 38.5 15 65.5s3 73.5 3 139.5zM286.004 693.003l40 0.00195312c0 -25.333 -5 -47 -15 -65s-25.667 -27 -47 -27c-16.667 0 -39.667 7 -69 21
c-28 14 -47.333 21 -58 21c-8 0 -14.5 -2.5 -19.5 -7.5s-8.16699 -9.83301 -9.5 -14.5s-2.66602 -11.334 -3.99902 -20.001h-41c0 6.66699 0.5 13.667 1.5 21s3.33301 17.166 7 29.499s10.5 22.333 20.5 30s22 11.5 36 11.5s38 -7.66699 72 -23
c28 -12.667 46.333 -19 55 -19c17.333 0 27.666 14 30.999 42z" />
    <glyph glyph-name="adieresis" unicode="&#xe4;" horiz-adv-x="389" 
d="M47 381c6 46.667 17.6709 80.3369 35.0039 101.004c23.333 29.333 59 44 107 44c25.333 0 47.166 -4.33301 65.499 -13s32.166 -18.834 41.499 -30.501s16.5 -26.834 21.5 -45.501s8 -34.167 9 -46.5s1.5 -27.166 1.5 -44.499v-201c0 -34.667 2.16699 -60.167 6.5 -76.5
s13.833 -39.166 28.5 -68.499h-66c-6.66699 20 -11.334 35.333 -14.001 46c-24 -32.667 -61.667 -49 -113 -49c-36.667 0 -67.5 10.667 -92.5 32s-37.5 55 -37.5 101c0 43.333 11.333 77.833 34 103.5s60.667 47.5 114 65.5c36.667 12.667 64.334 24.667 83.001 36l-1 26
c0 19.333 -0.666992 35 -2 47s-4.5 25.167 -9.5 39.5s-13.333 25.166 -25 32.499s-26.834 11 -45.501 11c-7.33301 0 -14.333 -0.833008 -21 -2.5s-12.334 -4.33398 -17.001 -8.00098s-9 -7.5 -13 -11.5s-7.5 -9 -10.5 -15l-7.5 -15.5c-2 -4.33301 -3.83301 -10 -5.5 -17
l-3.5 -15c-0.666992 -3 -1.5 -7.83301 -2.5 -14.5s-1.5 -10.334 -1.5 -11.001c-0.666992 -0.666992 -2.66699 -1 -6 -1c-13.333 1.33301 -31 1.66602 -53 0.999023zM271.004 297.003c-34.667 -16.667 -55.667 -26.334 -63 -29.001c-72 -28.667 -108 -72.667 -108 -132
c0 -28 7.5 -51.333 22.5 -70s32.833 -28 53.5 -28c14 0 28.5 5.33301 43.5 16s26.167 23.334 33.5 38.001c8 16.667 13 38.5 15 65.5s3 73.5 3 139.5zM89.0039 677.003h60v-85h-60v85zM240.004 677.003h60v-85h-60v85z" />
    <glyph glyph-name="aring" unicode="&#xe5;" horiz-adv-x="389" 
d="M47 381c6 46.667 17.6709 80.3369 35.0039 101.004c23.333 29.333 59 44 107 44c25.333 0 47.166 -4.33301 65.499 -13s32.166 -18.834 41.499 -30.501s16.5 -26.834 21.5 -45.501s8 -34.167 9 -46.5s1.5 -27.166 1.5 -44.499v-201c0 -34.667 2.16699 -60.167 6.5 -76.5
s13.833 -39.166 28.5 -68.499h-66c-6.66699 20 -11.334 35.333 -14.001 46c-24 -32.667 -61.667 -49 -113 -49c-36.667 0 -67.5 10.667 -92.5 32s-37.5 55 -37.5 101c0 43.333 11.333 77.833 34 103.5s60.667 47.5 114 65.5c36.667 12.667 64.334 24.667 83.001 36l-1 26
c0 19.333 -0.666992 35 -2 47s-4.5 25.167 -9.5 39.5s-13.333 25.166 -25 32.499s-26.834 11 -45.501 11c-7.33301 0 -14.333 -0.833008 -21 -2.5s-12.334 -4.33398 -17.001 -8.00098s-9 -7.5 -13 -11.5s-7.5 -9 -10.5 -15l-7.5 -15.5c-2 -4.33301 -3.83301 -10 -5.5 -17
l-3.5 -15c-0.666992 -3 -1.5 -7.83301 -2.5 -14.5s-1.5 -10.334 -1.5 -11.001c-0.666992 -0.666992 -2.66699 -1 -6 -1c-13.333 1.33301 -31 1.66602 -53 0.999023zM271.004 297.003c-34.667 -16.667 -55.667 -26.334 -63 -29.001c-72 -28.667 -108 -72.667 -108 -132
c0 -28 7.5 -51.333 22.5 -70s32.833 -28 53.5 -28c14 0 28.5 5.33301 43.5 16s26.167 23.334 33.5 38.001c8 16.667 13 38.5 15 65.5s3 73.5 3 139.5zM194.004 739.003c24.667 0 45.499 -8.5 62.499 -25.5s25.5 -37.5 25.5 -61.5c0 -24.667 -8.5 -45.5 -25.5 -62.5
s-37.833 -25.5 -62.5 -25.5c-24 0 -44.5 8.66699 -61.5 26s-25.5 38 -25.5 62s8.33301 44.5 25 61.5s37.334 25.5 62.001 25.5zM195.003 707.003c-14.667 0 -27.667 -5 -39 -15s-17 -23.667 -17 -41c0 -16 5.33301 -29.167 16 -39.5s24 -15.5 40 -15.5
c15.333 0 28.333 5.33301 39 16s16 23.667 16 39s-5.33301 28.5 -16 39.5s-23.667 16.5 -39 16.5z" />
    <glyph glyph-name="ae" unicode="&#xe6;" horiz-adv-x="611" 
d="M106 383l-57.999 7.00098c0.666992 11.333 1.66699 21.333 3 30s5 20.5 11 35.5s13.667 27.333 23 37s23 18.334 41 26.001s39.333 11.5 64 11.5s46 -3.16699 64 -9.5s30 -12.166 36 -17.499s12.667 -12.666 20 -21.999c26.667 32.667 63.334 49 110.001 49
c31.333 0 57.833 -6.83301 79.5 -20.5s37 -31.167 46 -52.5s16.333 -44.666 22 -69.999s7.66699 -49.666 6 -72.999s-2.16699 -44.333 -1.5 -63h-237v-26c0 -26.667 1 -49.834 3 -69.501s6 -39.334 12 -59.001s15.333 -34.667 28 -45s28.667 -15.5 48 -15.5
c17.333 0 32.333 4.66699 45 14s22 21.333 28 36s10.333 28.5 13 41.5s4.33398 26.167 5.00098 39.5l55 -9c-7.33301 -113.333 -56 -170 -146 -170c-20 0 -37.5 2.5 -52.5 7.5s-27.667 12.333 -38 22s-18 17.834 -23 24.501s-10.833 16 -17.5 28
c-6.66699 -10.667 -12.334 -19 -17.001 -25s-12.334 -14.333 -23.001 -25s-23.5 -18.667 -38.5 -24s-31.833 -8 -50.5 -8c-33.333 0 -63.166 11.667 -89.499 35s-39.5 59.666 -39.5 108.999c0 45.333 11.333 78.666 34 99.999s61 40.666 115 57.999
c40 13.333 70.333 26 91 38v40c0 8 -0.5 19 -1.5 33s-2.5 23.833 -4.5 29.5s-4.83301 12.667 -8.5 21s-8.33398 14.166 -14.001 17.499s-12.834 6.33301 -21.501 9s-18.667 4 -30 4c-32.667 0 -55.5 -8.33301 -68.5 -25s-20.5 -41.334 -22.5 -74.001zM277.001 280.001
c-26 -12.667 -51.6689 -23.667 -77.002 -33c-35.333 -13.333 -61.666 -28 -78.999 -44s-26 -40.667 -26 -74c0 -28 8 -49.667 24 -65s34.667 -23 56 -23c24 0 44.833 9 62.5 27s28.834 42 33.501 72c4 27.333 6 74 6 140zM334.999 301.001h179.001
c1.33301 21.333 1.16602 41.333 -0.500977 60s-5.5 37.834 -11.5 57.501s-15.833 35.167 -29.5 46.5s-30.834 17 -51.501 17c-18.667 0 -34.167 -4.16699 -46.5 -12.5s-21.166 -20.333 -26.499 -36s-8.83301 -30.334 -10.5 -44.001s-2.5 -30.167 -2.5 -49.5v-39z" />
    <glyph glyph-name="ccedilla" unicode="&#xe7;" horiz-adv-x="389" 
d="M347 366l-55.998 -13.0029c-6 86 -37.333 129 -94 129c-15.333 0 -28.833 -2.5 -40.5 -7.5s-20.834 -13.333 -27.501 -25s-12 -22.667 -16 -33s-6.83301 -25.166 -8.5 -44.499s-2.66699 -34.166 -3 -44.499s-0.5 -26.5 -0.5 -48.5c0 -53.333 2.33301 -96.5 7 -129.5
s14.834 -60.167 30.501 -81.5s37.5 -32 65.5 -32c15.333 0 28.666 3.5 39.999 10.5s19.833 14.5 25.5 22.5s10.667 19.833 15 35.5s7 27.667 8 36s2.16699 20.5 3.5 36.5l56 -10c-2 -16.667 -3.66699 -30 -5 -40s-5 -24.333 -11 -43s-13.167 -33.667 -21.5 -45
s-20.666 -22.166 -36.999 -32.499s-35.5 -16.5 -57.5 -18.5l-6 -35c20.667 -0.666992 38.334 -6.16699 53.001 -16.5s22 -24.833 22 -43.5c0 -28.667 -14 -50.667 -42 -66c-21.333 -12 -54 -18 -98 -18l-3 37c61.333 3.33301 92 19.333 92 48c0 23.333 -21.333 35 -64 35
l11 60c-22 2 -41.5 7.83301 -58.5 17.5s-30.5 22.834 -40.5 39.501s-18.167 33.5 -24.5 50.5s-11 37 -14 60s-4.83301 42.167 -5.5 57.5s-1 33.333 -1 54c0 19.333 0.166992 35.333 0.5 48s1.66602 29 3.99902 49s5.33301 36.833 9 50.5s9.5 28.334 17.5 44.001
s17.333 28.167 28 37.5s24.334 17.166 41.001 23.499s35.667 9.5 57 9.5c27.333 0 50.666 -4.83301 69.999 -14.5s34.166 -23.834 44.499 -42.501s17.666 -35.5 21.999 -50.5s8.5 -33.833 12.5 -56.5z" />
    <glyph glyph-name="egrave" unicode="&#xe8;" horiz-adv-x="389" 
d="M295 166h56.999c-10 -110 -59 -165 -147 -165c-56 0 -97.667 20.5 -125 61.5s-41 112.5 -41 214.5c0 35.333 2 66.5 6 93.5s11.333 53 22 78s26.834 44.333 48.501 58s48.167 20.5 79.5 20.5c104.667 0 157 -74.667 157 -224v-46h-253
c0.666992 -31.333 2.16699 -56.5 4.5 -75.5s6.66602 -40.833 12.999 -65.5s17 -43.167 32 -55.5s33.833 -18.5 56.5 -18.5c19.333 0 35.5 4.83301 48.5 14.5s22.167 22.334 27.5 38.001s8.83301 28.667 10.5 39s2.83398 21.166 3.50098 32.499zM98.999 307h195.002v33
c0 7.33301 -0.166992 14 -0.5 20s-1.33301 15.5 -3 28.5s-4.66699 24.667 -9 35s-9.83301 20.666 -16.5 30.999s-15.834 18.5 -27.501 24.5s-25.167 9 -40.5 9c-14.667 0 -27.334 -2.16699 -38.001 -6.5s-19.5 -11.666 -26.5 -21.999s-12.667 -20 -17 -29s-7.5 -22 -9.5 -39
s-3.5 -30.333 -4.5 -40s-1.83301 -24.5 -2.5 -44.5zM126.001 714h80l27 -129h-43z" />
    <glyph glyph-name="eacute" unicode="&#xe9;" horiz-adv-x="389" 
d="M295 166h56.999c-10 -110 -59 -165 -147 -165c-56 0 -97.667 20.5 -125 61.5s-41 112.5 -41 214.5c0 35.333 2 66.5 6 93.5s11.333 53 22 78s26.834 44.333 48.501 58s48.167 20.5 79.5 20.5c104.667 0 157 -74.667 157 -224v-46h-253
c0.666992 -31.333 2.16699 -56.5 4.5 -75.5s6.66602 -40.833 12.999 -65.5s17 -43.167 32 -55.5s33.833 -18.5 56.5 -18.5c19.333 0 35.5 4.83301 48.5 14.5s22.167 22.334 27.5 38.001s8.83301 28.667 10.5 39s2.83398 21.166 3.50098 32.499zM98.999 307h195.002v33
c0 7.33301 -0.166992 14 -0.5 20s-1.33301 15.5 -3 28.5s-4.66699 24.667 -9 35s-9.83301 20.666 -16.5 30.999s-15.834 18.5 -27.501 24.5s-25.167 9 -40.5 9c-14.667 0 -27.334 -2.16699 -38.001 -6.5s-19.5 -11.666 -26.5 -21.999s-12.667 -20 -17 -29s-7.5 -22 -9.5 -39
s-3.5 -30.333 -4.5 -40s-1.83301 -24.5 -2.5 -44.5zM288.001 714l-97 -128h-43l47 128h93z" />
    <glyph glyph-name="ecircumflex" unicode="&#xea;" horiz-adv-x="389" 
d="M295 166h56.999c-10 -110 -59 -165 -147 -165c-56 0 -97.667 20.5 -125 61.5s-41 112.5 -41 214.5c0 35.333 2 66.5 6 93.5s11.333 53 22 78s26.834 44.333 48.501 58s48.167 20.5 79.5 20.5c104.667 0 157 -74.667 157 -224v-46h-253
c0.666992 -31.333 2.16699 -56.5 4.5 -75.5s6.66602 -40.833 12.999 -65.5s17 -43.167 32 -55.5s33.833 -18.5 56.5 -18.5c19.333 0 35.5 4.83301 48.5 14.5s22.167 22.334 27.5 38.001s8.83301 28.667 10.5 39s2.83398 21.166 3.50098 32.499zM98.999 307h195.002v33
c0 7.33301 -0.166992 14 -0.5 20s-1.33301 15.5 -3 28.5s-4.66699 24.667 -9 35s-9.83301 20.666 -16.5 30.999s-15.834 18.5 -27.501 24.5s-25.167 9 -40.5 9c-14.667 0 -27.334 -2.16699 -38.001 -6.5s-19.5 -11.666 -26.5 -21.999s-12.667 -20 -17 -29s-7.5 -22 -9.5 -39
s-3.5 -30.333 -4.5 -40s-1.83301 -24.5 -2.5 -44.5zM231.001 713l87 -127h-61l-64 93l-61 -93h-61l87 127h73z" />
    <glyph glyph-name="edieresis" unicode="&#xeb;" horiz-adv-x="389" 
d="M295 166h56.999c-10 -110 -59 -165 -147 -165c-56 0 -97.667 20.5 -125 61.5s-41 112.5 -41 214.5c0 35.333 2 66.5 6 93.5s11.333 53 22 78s26.834 44.333 48.501 58s48.167 20.5 79.5 20.5c104.667 0 157 -74.667 157 -224v-46h-253
c0.666992 -31.333 2.16699 -56.5 4.5 -75.5s6.66602 -40.833 12.999 -65.5s17 -43.167 32 -55.5s33.833 -18.5 56.5 -18.5c19.333 0 35.5 4.83301 48.5 14.5s22.167 22.334 27.5 38.001s8.83301 28.667 10.5 39s2.83398 21.166 3.50098 32.499zM98.999 307h195.002v33
c0 7.33301 -0.166992 14 -0.5 20s-1.33301 15.5 -3 28.5s-4.66699 24.667 -9 35s-9.83301 20.666 -16.5 30.999s-15.834 18.5 -27.501 24.5s-25.167 9 -40.5 9c-14.667 0 -27.334 -2.16699 -38.001 -6.5s-19.5 -11.666 -26.5 -21.999s-12.667 -20 -17 -29s-7.5 -22 -9.5 -39
s-3.5 -30.333 -4.5 -40s-1.83301 -24.5 -2.5 -44.5zM89.001 677h60v-85h-60v85zM240.001 677h60v-85h-60v85z" />
    <glyph glyph-name="igrave" unicode="&#xec;" horiz-adv-x="200" 
d="M71 520h58v-520h-58v520zM32 714h80l27 -129h-43z" />
    <glyph glyph-name="iacute" unicode="&#xed;" horiz-adv-x="200" 
d="M71 520h58v-520h-58v520zM194 714l-97 -128h-43l47 128h93z" />
    <glyph glyph-name="icircumflex" unicode="&#xee;" horiz-adv-x="200" 
d="M71 520h58v-520h-58v520zM137 713l87 -127h-61l-64 93l-61 -93h-61l87 127h73z" />
    <glyph glyph-name="idieresis" unicode="&#xef;" horiz-adv-x="200" 
d="M71 520h58v-520h-58v520zM-5 677h60v-85h-60v85zM146 677h60v-85h-60v85z" />
    <glyph glyph-name="eth" unicode="&#xf0;" 
d="M104 716l65.999 0.00292969c2.66699 -2 6.33398 -5.33301 11.001 -10c0.666992 -0.666992 5.33398 -4.83398 14.001 -12.501s14 -12.167 16 -13.5l9 -9l81 45l22 -33l-73 -41c22 -25.333 39.167 -46.333 51.5 -63s28 -41.667 47 -75s33.167 -70.833 42.5 -112.5
s14 -87.167 14 -136.5c0 -28.667 -2.33301 -56.334 -7 -83.001s-12.834 -55 -24.501 -85s-30.167 -54 -55.5 -72s-56 -27 -92 -27c-122.667 0 -184 94.333 -184 283c0 10 0.166992 19.167 0.5 27.5s1.5 22.166 3.5 41.499s4.83301 36.333 8.5 51s9.5 31.334 17.5 50.001
s17.5 34.167 28.5 46.5s25.5 22.666 43.5 30.999s38 12.5 60 12.5c32 0 60.667 -11.333 86 -34l2 2c-18 33.333 -42.667 69.333 -74 108c-4.66699 4.66699 -8 9 -10 13l-109 -60l-20 33l102 56c-21.333 22.667 -47 45 -77 67zM101.999 262.003
c0 -150.667 39.333 -226.002 118 -226.002c27.333 0 50 8.33301 68 25s30.833 38.834 38.5 66.501s12.667 51.834 15 72.501s3.5 42 3.5 64c0 76 -13.167 131.5 -39.5 166.5s-56.5 52.5 -90.5 52.5c-75.333 0 -113 -73.667 -113 -221z" />
    <glyph glyph-name="ntilde" unicode="&#xf1;" 
d="M66 518l57.998 -0.00292969v-53h2c7.33301 11.333 13.333 19.833 18 25.5s15.334 12 32.001 19s37.334 10.5 62.001 10.5c26.667 0 50 -5.66699 70 -17s34.667 -25.166 44 -41.499s16 -31.166 20 -44.499s6 -24.666 6 -33.999v-383h-58v365c0 76 -29.333 114 -88 114
c-39.333 0 -69.333 -20.667 -90 -62c-12 -24 -18 -63 -18 -117v-300h-58v518zM313.998 692.997l40 0.00195312c0 -25.333 -5 -47 -15 -65s-25.667 -27 -47 -27c-16.667 0 -39.667 7 -69 21c-28 14 -47.333 21 -58 21c-8 0 -14.5 -2.5 -19.5 -7.5
s-8.16699 -9.83301 -9.5 -14.5s-2.66602 -11.334 -3.99902 -20.001h-41c0 6.66699 0.5 13.667 1.5 21s3.33301 17.166 7 29.499s10.5 22.333 20.5 30s22 11.5 36 11.5s38 -7.66699 72 -23c28 -12.667 46.333 -19 55 -19c17.333 0 27.666 14 30.999 42z" />
    <glyph glyph-name="ograve" unicode="&#xf2;" 
d="M41 268c0 168.667 60.001 253 180.001 253c121.333 0 182 -87.333 182 -262c0 -174 -60.333 -261 -181 -261c-30.667 0 -57.167 5.16699 -79.5 15.5s-39.833 23.666 -52.5 39.999s-22.834 36.833 -30.501 61.5s-12.667 48.834 -15 72.501s-3.5 50.5 -3.5 80.5z
M222.001 482c-80.667 0 -121.003 -70.666 -121.003 -211.999c0 -19.333 0.5 -36.833 1.5 -52.5s2.83301 -33 5.5 -52s6.83398 -35.667 12.501 -50s12.834 -27.833 21.501 -40.5s19.834 -22.334 33.501 -29.001s29.5 -10 47.5 -10c80 0 120 76 120 228
c0 145.333 -40.333 218 -121 218zM153.998 714.001h80l27 -129h-43z" />
    <glyph glyph-name="oacute" unicode="&#xf3;" 
d="M41 268c0 168.667 60.001 253 180.001 253c121.333 0 182 -87.333 182 -262c0 -174 -60.333 -261 -181 -261c-30.667 0 -57.167 5.16699 -79.5 15.5s-39.833 23.666 -52.5 39.999s-22.834 36.833 -30.501 61.5s-12.667 48.834 -15 72.501s-3.5 50.5 -3.5 80.5z
M222.001 482c-80.667 0 -121.003 -70.666 -121.003 -211.999c0 -19.333 0.5 -36.833 1.5 -52.5s2.83301 -33 5.5 -52s6.83398 -35.667 12.501 -50s12.834 -27.833 21.501 -40.5s19.834 -22.334 33.501 -29.001s29.5 -10 47.5 -10c80 0 120 76 120 228
c0 145.333 -40.333 218 -121 218zM315.998 714.001l-97 -128h-43l47 128h93z" />
    <glyph glyph-name="ocircumflex" unicode="&#xf4;" 
d="M41 268c0 168.667 60.001 253 180.001 253c121.333 0 182 -87.333 182 -262c0 -174 -60.333 -261 -181 -261c-30.667 0 -57.167 5.16699 -79.5 15.5s-39.833 23.666 -52.5 39.999s-22.834 36.833 -30.501 61.5s-12.667 48.834 -15 72.501s-3.5 50.5 -3.5 80.5z
M222.001 482c-80.667 0 -121.003 -70.666 -121.003 -211.999c0 -19.333 0.5 -36.833 1.5 -52.5s2.83301 -33 5.5 -52s6.83398 -35.667 12.501 -50s12.834 -27.833 21.501 -40.5s19.834 -22.334 33.501 -29.001s29.5 -10 47.5 -10c80 0 120 76 120 228
c0 145.333 -40.333 218 -121 218zM258.998 713.001l87 -127h-61l-64 93l-61 -93h-61l87 127h73z" />
    <glyph glyph-name="otilde" unicode="&#xf5;" 
d="M41 268c0 168.667 60.001 253 180.001 253c121.333 0 182 -87.333 182 -262c0 -174 -60.333 -261 -181 -261c-30.667 0 -57.167 5.16699 -79.5 15.5s-39.833 23.666 -52.5 39.999s-22.834 36.833 -30.501 61.5s-12.667 48.834 -15 72.501s-3.5 50.5 -3.5 80.5z
M222.001 482c-80.667 0 -121.003 -70.666 -121.003 -211.999c0 -19.333 0.5 -36.833 1.5 -52.5s2.83301 -33 5.5 -52s6.83398 -35.667 12.501 -50s12.834 -27.833 21.501 -40.5s19.834 -22.334 33.501 -29.001s29.5 -10 47.5 -10c80 0 120 76 120 228
c0 145.333 -40.333 218 -121 218zM313.998 693.001l40 0.00195312c0 -25.333 -5 -47 -15 -65s-25.667 -27 -47 -27c-16.667 0 -39.667 7 -69 21c-28 14 -47.333 21 -58 21c-8 0 -14.5 -2.5 -19.5 -7.5s-8.16699 -9.83301 -9.5 -14.5s-2.66602 -11.334 -3.99902 -20.001h-41
c0 6.66699 0.5 13.667 1.5 21s3.33301 17.166 7 29.499s10.5 22.333 20.5 30s22 11.5 36 11.5s38 -7.66699 72 -23c28 -12.667 46.333 -19 55 -19c17.333 0 27.666 14 30.999 42z" />
    <glyph glyph-name="odieresis" unicode="&#xf6;" 
d="M41 268c0 168.667 60.001 253 180.001 253c121.333 0 182 -87.333 182 -262c0 -174 -60.333 -261 -181 -261c-30.667 0 -57.167 5.16699 -79.5 15.5s-39.833 23.666 -52.5 39.999s-22.834 36.833 -30.501 61.5s-12.667 48.834 -15 72.501s-3.5 50.5 -3.5 80.5z
M222.001 482c-80.667 0 -121.003 -70.666 -121.003 -211.999c0 -19.333 0.5 -36.833 1.5 -52.5s2.83301 -33 5.5 -52s6.83398 -35.667 12.501 -50s12.834 -27.833 21.501 -40.5s19.834 -22.334 33.501 -29.001s29.5 -10 47.5 -10c80 0 120 76 120 228
c0 145.333 -40.333 218 -121 218zM116.998 677.001h60v-85h-60v85zM267.998 677.001h60v-85h-60v85z" />
    <glyph glyph-name="divide" unicode="&#xf7;" 
d="M28 372h388v-42h-388v42zM190 533h64v-68h-64v68zM190 237h64v-68h-64v68z" />
    <glyph glyph-name="oslash" unicode="&#xf8;" 
d="M106 29l-36.001 -59l-28 19l40 68c-28 45.333 -42 110 -42 194c0 46 2.66699 87 8 123c1.33301 8 3.33301 16.833 6 26.5s8.16699 22.667 16.5 39s18.333 30.833 30 43.5s28 23.667 49 33s44.5 14 70.5 14c48.667 0 88.334 -15 119.001 -45l34 57l31 -19l-42 -69
c26.667 -44 40 -108.667 40 -194c0 -181.333 -60 -272 -180 -272c-47.333 0 -86 13.667 -116 41zM326.999 396l-189.999 -316c19.333 -29.333 47.666 -44 84.999 -44c80 0 120 75 120 225c0 56.667 -5 101.667 -15 135zM118 117l189.999 317
c-19.333 32 -48.666 48 -87.999 48c-80 0 -120 -70.667 -120 -212c0 -68.667 6 -119.667 18 -153z" />
    <glyph glyph-name="ugrave" unicode="&#xf9;" 
d="M378 0l-58.001 0.000976562l1 49c-22.667 -35.333 -60.667 -52.333 -114 -51c-33.333 0.666992 -61.166 10.667 -83.499 30s-37.333 40.166 -45 62.499s-11.5 44.833 -11.5 67.5v341l57 19v-346c0 -30 7.83301 -60 23.5 -90s36.167 -45 61.5 -45
c44.667 0 75.667 21.333 93 64c12 30.667 18 69.667 18 117v300h58v-518zM153.999 714.001h80l27 -129h-43z" />
    <glyph glyph-name="uacute" unicode="&#xfa;" 
d="M378 0l-58.001 0.000976562l1 49c-22.667 -35.333 -60.667 -52.333 -114 -51c-33.333 0.666992 -61.166 10.667 -83.499 30s-37.333 40.166 -45 62.499s-11.5 44.833 -11.5 67.5v341l57 19v-346c0 -30 7.83301 -60 23.5 -90s36.167 -45 61.5 -45
c44.667 0 75.667 21.333 93 64c12 30.667 18 69.667 18 117v300h58v-518zM315.999 714.001l-97 -128h-43l47 128h93z" />
    <glyph glyph-name="ucircumflex" unicode="&#xfb;" 
d="M378 0l-58.001 0.000976562l1 49c-22.667 -35.333 -60.667 -52.333 -114 -51c-33.333 0.666992 -61.166 10.667 -83.499 30s-37.333 40.166 -45 62.499s-11.5 44.833 -11.5 67.5v341l57 19v-346c0 -30 7.83301 -60 23.5 -90s36.167 -45 61.5 -45
c44.667 0 75.667 21.333 93 64c12 30.667 18 69.667 18 117v300h58v-518zM258.999 713.001l87 -127h-61l-64 93l-61 -93h-61l87 127h73z" />
    <glyph glyph-name="udieresis" unicode="&#xfc;" 
d="M378 0l-58.001 0.000976562l1 49c-22.667 -35.333 -60.667 -52.333 -114 -51c-33.333 0.666992 -61.166 10.667 -83.499 30s-37.333 40.166 -45 62.499s-11.5 44.833 -11.5 67.5v341l57 19v-346c0 -30 7.83301 -60 23.5 -90s36.167 -45 61.5 -45
c44.667 0 75.667 21.333 93 64c12 30.667 18 69.667 18 117v300h58v-518zM116.999 677.001h60v-85h-60v85zM267.999 677.001h60v-85h-60v85z" />
    <glyph glyph-name="yacute" unicode="&#xfd;" horiz-adv-x="389" 
d="M0 518h55.999l142 -445l132 445h57l-185 -610l-2 -8c-11.333 -38 -24 -65.833 -38 -83.5s-34.667 -26.5 -62 -26.5c-17.333 0 -37 2.33301 -59 7v59c26.667 -5.33301 43.334 -8 50.001 -8c20 0 33 8 39 24c12 28.667 18.667 46 20 52l22 76zM287.999 714l-97 -128h-43
l47 128h93z" />
    <glyph glyph-name="thorn" unicode="&#xfe;" 
d="M127 -199l-58.002 -0.00292969v915h58v-257h2c25.333 47.333 65 71 119 71c103.333 0 155 -87 155 -261c0 -22.667 -0.5 -43 -1.5 -61s-3.16699 -38.667 -6.5 -62s-8.66602 -43.666 -15.999 -60.999s-16.5 -33.666 -27.5 -48.999s-25.667 -27.166 -44 -35.499
s-39.166 -12.5 -62.499 -12.5c-57.333 0 -96 23.667 -116 71h-2v-258zM342.998 243.997c0 16 -0.169922 28.833 -0.50293 38.5s-1.16602 24 -2.49902 43s-3.16602 34.5 -5.49902 46.5s-6 25.667 -11 41s-11.167 27.5 -18.5 36.5s-16.666 16.667 -27.999 23
s-24.333 9.5 -39 9.5c-47.333 0 -79.333 -30.333 -96 -91c-10 -36.667 -15 -86 -15 -148c0 -48 4.33301 -87.667 13 -119c16 -58.667 48.333 -88 97 -88c70.667 0 106 69.333 106 208z" />
    <glyph glyph-name="ydieresis" unicode="&#xff;" horiz-adv-x="389" 
d="M0 518h55.999l142 -445l132 445h57l-185 -610l-2 -8c-11.333 -38 -24 -65.833 -38 -83.5s-34.667 -26.5 -62 -26.5c-17.333 0 -37 2.33301 -59 7v59c26.667 -5.33301 43.334 -8 50.001 -8c20 0 33 8 39 24c12 28.667 18.667 46 20 52l22 76zM88.999 677h60v-85h-60v85z
M239.999 677h60v-85h-60v85z" />
    <glyph glyph-name="ebreve" unicode="&#x115;" horiz-adv-x="389" 
d="M295 166h56.999c-10 -110 -59 -165 -147 -165c-56 0 -97.667 20.5 -125 61.5s-41 112.5 -41 214.5c0 35.333 2 66.5 6 93.5s11.333 53 22 78s26.834 44.333 48.501 58s48.167 20.5 79.5 20.5c104.667 0 157 -74.667 157 -224v-46h-253
c0.666992 -31.333 2.16699 -56.5 4.5 -75.5s6.66602 -40.833 12.999 -65.5s17 -43.167 32 -55.5s33.833 -18.5 56.5 -18.5c19.333 0 35.5 4.83301 48.5 14.5s22.167 22.334 27.5 38.001s8.83301 28.667 10.5 39s2.83398 21.166 3.50098 32.499zM98.999 307h195.002v33
c0 7.33301 -0.166992 14 -0.5 20s-1.33301 15.5 -3 28.5s-4.66699 24.667 -9 35s-9.83301 20.666 -16.5 30.999s-15.834 18.5 -27.501 24.5s-25.167 9 -40.5 9c-14.667 0 -27.334 -2.16699 -38.001 -6.5s-19.5 -11.666 -26.5 -21.999s-12.667 -20 -17 -29s-7.5 -22 -9.5 -39
s-3.5 -30.333 -4.5 -40s-1.83301 -24.5 -2.5 -44.5zM268.001 708h49c-4 -39.333 -17.667 -68.5 -41 -87.5s-50.333 -28.5 -81 -28.5c-39.333 0 -68.833 10.833 -88.5 32.5s-31.5 49.5 -35.5 83.5h48c6 -48 31 -72 75 -72c43.333 0 68 24 74 72z" />
    <glyph glyph-name="Edotaccent" unicode="&#x116;" 
d="M82 716l309 -1v-57l-244 1v-269h225v-51h-225v-282h257v-57h-322v716zM180 884h83v-94h-83v94z" />
    <glyph glyph-name="hbar" unicode="&#x127;" 
d="M66 700l58.001 15.999v-251h2c24.667 38.667 64.667 57.334 120 56.001c88.667 -2 133 -66.333 133 -193l-1 -328h-58v365c0 28.667 -6.83301 55.167 -20.5 79.5s-31.834 36.833 -54.501 37.5c-18 0.666992 -36.833 -4.5 -56.5 -15.5s-35.167 -27.5 -46.5 -49.5
c-12 -24 -18 -63 -18 -117v-300h-58v700zM74.001 652.999h295v-54h-295v54z" />
    <glyph glyph-name="OE" unicode="&#x152;" horiz-adv-x="778" 
d="M423 716l298 -0.00195312v-57h-242v-264h216v-57h-216v-281h252v-57h-308v86h-2c-11.333 -19.333 -21.333 -34.833 -30 -46.5s-23.834 -23.167 -45.501 -34.5s-47.167 -17 -76.5 -17c-66 0 -116.667 22.333 -152 67c-23.333 29.333 -40.333 64.333 -51 105
s-16 101.334 -16 182.001c0 25.333 0.166992 45.666 0.5 60.999s1.83301 38 4.5 68s6.5 55 11.5 75s12.833 42.5 23.5 67.5s23.334 45 38.001 60s33.667 27.833 57 38.5s49.666 16 78.999 16c30.667 0 57.5 -5.66699 80.5 -17s38.833 -22.166 47.5 -32.499
s18.334 -24.166 29.001 -41.499h2v79zM118 335.998c0 -82.667 6.99902 -145.001 20.999 -187.001c24 -71.333 67 -107 129 -107c56.667 0 96.667 31.667 120 95c18 50 27 127.667 27 233c0 90.667 -8.33301 159.334 -25 206.001c-22.667 65.333 -63 98 -121 98
c-28.667 0 -53.667 -8 -75 -24s-36.666 -35.333 -45.999 -58c-20 -48.667 -30 -134 -30 -256z" />
    <glyph glyph-name="oe" unicode="&#x153;" horiz-adv-x="667" 
d="M630 251h-242.997c-2.66699 -142.667 30 -214 98 -214c50.667 0 81.334 39.333 92.001 118l1 14l55 -8c-2 -16 -3.83301 -29 -5.5 -39s-5.83398 -24.5 -12.501 -43.5s-15 -34.167 -25 -45.5s-24.333 -21.666 -43 -30.999s-40.334 -14 -65.001 -14
c-22 0 -41.333 3.16699 -58 9.5s-29.667 15.333 -39 27s-16 21 -20 28s-8 15.833 -12 26.5c-7.33301 -14 -13.333 -24.667 -18 -32s-12.334 -16.5 -23.001 -27.5s-23.834 -19 -39.501 -24s-34.167 -7.5 -55.5 -7.5c-116 0 -174 87 -174 261c0 187.333 60.667 281 182 281
c56 0 99.667 -27 131 -81c25.333 54 66.333 81 123 81c52 0 90.5 -20.333 115.5 -61s37.5 -92.334 37.5 -155.001c0 -2 -0.333008 -12 -1 -30s-1 -29 -1 -33zM103.003 278c0 -34 1.5 -64 4.5 -90s8.16699 -51.167 15.5 -75.5s18.833 -43.166 34.5 -56.499
s35.167 -20 58.5 -20c24 0 44 7 60 21s27.5 34 34.5 60s11.667 51 14 75s3.5 52.333 3.5 85c0 136.667 -36.333 205 -109 205c-40 0 -69.333 -19.333 -88 -58s-28 -87.334 -28 -146.001zM388.003 301l184.999 0.00292969c0 7.33301 0.166992 13.833 0.5 19.5
s0.5 9.5 0.5 11.5c0 11.333 -0.666992 22.666 -2 33.999s-4.5 27.166 -9.5 47.499s-14.5 36.833 -28.5 49.5s-31.667 19 -53 19c-14 0 -26.167 -2.16699 -36.5 -6.5s-18.666 -11.5 -24.999 -21.5s-11.666 -19.5 -15.999 -28.5s-7.5 -21.833 -9.5 -38.5
s-3.33301 -30.334 -4 -41.001s-1.33398 -25.667 -2.00098 -45z" />
    <glyph glyph-name="Racute" unicode="&#x154;" horiz-adv-x="500" 
d="M83 716l145 0.00195312c66 0 113 -7.66699 141 -23c57.333 -30.667 86 -85.334 86 -164.001c0 -28 -3.66699 -54.667 -11 -80s-22.333 -50 -45 -74s-52 -39 -88 -45v-2c1.33301 -0.666992 6 -2 14 -4s13 -3.5 15 -4.5s6.66699 -3.16699 14 -6.5s12.5 -7 15.5 -11
s7.66699 -9.5 14 -16.5s11.666 -15.167 15.999 -24.5l16 -34.5c6.33301 -13.667 12.5 -28.834 18.5 -45.501c0 -1.33301 0.333008 -2.83301 1 -4.5s1.33398 -3.16699 2.00098 -4.5s1 -2.33301 1 -3l62 -169h-82c-22 80.667 -34.333 124 -37 130
c-20.667 65.333 -40.667 110 -60 134s-46 39.333 -80 46h-90v-310h-68v716zM148 668.002l-0.000976562 -310h64c18 0 36.167 2.5 54.5 7.5s37 13.167 56 24.5s34.5 28.666 46.5 51.999s18 51.333 18 84c0 52 -12.667 89.333 -38 112
c-14.667 12.667 -32.167 20.834 -52.5 24.501s-56.166 5.5 -107.499 5.5h-41zM319.999 912.002l-97 -128h-43l47 128h93z" />
    <glyph glyph-name="Scaron" unicode="&#x160;" horiz-adv-x="500" 
d="M431 527l-63.001 0.00195312c-6.66699 110.667 -48 166 -124 166c-34.667 0 -63 -13.667 -85 -41s-33 -55.333 -33 -84c0 -18 3.83301 -34.833 11.5 -50.5s20.667 -30.834 39 -45.501s33.666 -26 45.999 -34s31.5 -19.333 57.5 -34
c60.667 -34.667 104.334 -68.667 131.001 -102s40 -73.333 40 -120c0 -48.667 -16.167 -92.667 -48.5 -132s-80.833 -59 -145.5 -59c-65.333 0 -117 20.167 -155 60.5s-59.667 97.166 -65 170.499h64c14 -115.333 65 -173 153 -173c41.333 0 73.833 13.167 97.5 39.5
s35.5 56.5 35.5 90.5c0 21.333 -3.83301 40.666 -11.5 57.999s-20 33.333 -37 48s-31.5 25.834 -43.5 33.501s-29.333 17.834 -52 30.501c-61.333 34.667 -106.666 67.5 -135.999 98.5s-44 70.167 -44 117.5c0 50 16.5 90.833 49.5 122.5s74.833 47.5 125.5 47.5
c26.667 0 54.667 -5.5 84 -16.5s53.333 -30.167 72 -57.5c22 -32.667 34.333 -77.334 37 -134.001zM286.999 765.002h-73l-87 127h61l61 -93l64 93h61z" />
    <glyph glyph-name="scaron" unicode="&#x161;" horiz-adv-x="389" 
d="M332 392l-58.0059 -0.00390625c-2 26.667 -11.167 48.334 -27.5 65.001s-39.166 25 -68.499 25c-22.667 0 -41.667 -7.5 -57 -22.5s-23 -32.833 -23 -53.5c0 -22.667 8.33301 -42 25 -58s47 -35 91 -57c46.667 -23.333 81.5 -47.333 104.5 -72s34.5 -54 34.5 -88
c0 -6 -0.5 -12.833 -1.5 -20.5s-4.66699 -18.667 -11 -33s-14.666 -27.166 -24.999 -38.499s-26.166 -21.333 -47.499 -30s-46.666 -13 -75.999 -13c-57.333 0 -98.666 18 -123.999 54c-22 28.667 -34.667 59.334 -38 92.001h59c5.33301 -37.333 17.833 -64.333 37.5 -81
s42.834 -25 69.501 -25c30.667 0 54.5 9 71.5 27s25.5 38 25.5 60c0 14.667 -3.5 28.334 -10.5 41.001s-17.333 24.167 -31 34.5s-25.334 18.333 -35.001 24s-22.834 12.5 -39.501 20.5c-47.333 23.333 -81.666 46.5 -102.999 69.5s-32 50.833 -32 83.5
c0 35.333 11.833 64.833 35.5 88.5s58.834 35.5 105.501 35.5c44.667 0 79.167 -11.667 103.5 -35s39.5 -54.333 45.5 -93zM230.994 584.996h-73l-87 127h61l61 -93l64 93h61z" />
    <glyph glyph-name="Ycircumflex" unicode="&#x176;" horiz-adv-x="500" 
d="M7 716h74l168 -354l173 354h71l-216 -408v-308h-65v308zM286 911l87 -127h-61l-64 93l-61 -93h-61l87 127h73z" />
    <glyph glyph-name="Ydieresis" unicode="&#x178;" horiz-adv-x="500" 
d="M7 716h74l168 -354l173 354h71l-216 -408v-308h-65v308zM145 857h60v-85h-60v85zM296 857h60v-85h-60v85z" />
    <glyph glyph-name="Zcaron" unicode="&#x17d;" 
d="M59 716h345v-56l-307 -604l319 1v-57h-397v57l312 601l-272 1v57zM259 765h-73l-87 127h61l61 -93l64 93h61z" />
    <glyph glyph-name="zcaron" unicode="&#x17e;" horiz-adv-x="333" 
d="M23 518h288v-48l-230 -422h237v-48h-306v48l232 422h-221v48zM203 585h-73l-87 127h61l61 -93l64 93h61z" />
    <glyph glyph-name="florin" unicode="&#x192;" 
d="M300 518l109.001 0.000976562l-12 -43h-104l-104 -475c-20 -90 -35.333 -144 -46 -162c-19.333 -32 -53 -48 -101 -48c-21.333 0 -41.333 2.33301 -60 7v45c17.333 -2.66699 35 -4 53 -4c28 0 47.5 7.66699 58.5 23s20.167 39.666 27.5 72.999l117 541h-81l10 43h79
l17 80c8.66699 42 21.667 74.167 39 96.5s45 33.5 83 33.5c7.33301 0 28.666 -4 63.999 -12v-44c-20 5.33301 -36.667 8 -50 8c-16.667 0 -31 -4.33301 -43 -13s-19.667 -16.5 -23 -23.5s-5 -11.5 -5 -13.5c-11.333 -40 -17 -61 -17 -63z" />
    <glyph glyph-name="circumflex" unicode="&#x2c6;" horiz-adv-x="333" 
d="M203 713l87 -127h-61l-64 93l-61 -93h-61l87 127h73z" />
    <glyph glyph-name="tilde" unicode="&#x2dc;" horiz-adv-x="333" 
d="M258 693l40 0.00195312c0 -25.333 -5 -47 -15 -65s-25.667 -27 -47 -27c-16.667 0 -39.667 7 -69 21c-28 14 -47.333 21 -58 21c-8 0 -14.5 -2.5 -19.5 -7.5s-8.16699 -9.83301 -9.5 -14.5s-2.66602 -11.334 -3.99902 -20.001h-41c0 6.66699 0.5 13.667 1.5 21
s3.33301 17.166 7 29.499s10.5 22.333 20.5 30s22 11.5 36 11.5s38 -7.66699 72 -23c28 -12.667 46.333 -19 55 -19c17.333 0 27.666 14 30.999 42z" />
    <glyph glyph-name="endash" unicode="&#x2013;" horiz-adv-x="500" 
d="M-6 273h512v-46h-512v46z" />
    <glyph glyph-name="emdash" unicode="&#x2014;" horiz-adv-x="1000" 
d="M-6 273h1012v-46h-1012v46z" />
    <glyph glyph-name="quoteleft" unicode="&#x2018;" horiz-adv-x="160" 
d="M131 500h-83v99c0 30.667 5 55.167 15 73.5s26.667 36.833 50 55.5l26 -36c-16 -12 -28 -24.833 -36 -38.5s-11 -33.5 -9 -59.5h37v-94z" />
    <glyph glyph-name="quoteright" unicode="&#x2019;" horiz-adv-x="160" 
d="M29 728h83v-99c0 -30.667 -5 -55.167 -15 -73.5s-26.667 -36.833 -50 -55.5l-26 36c16 12 28 24.833 36 38.5s11 33.5 9 59.5h-37v94z" />
    <glyph glyph-name="quotesinglbase" unicode="&#x201a;" horiz-adv-x="222" 
d="M60 94l83 0.000976562v-99c0 -28.667 -7.66699 -53.834 -23 -75.501s-36.333 -43.167 -63 -64.5v47c14.667 10.667 25.5 23.167 32.5 37.5s9.5 34.5 7.5 60.5h-37v94z" />
    <glyph glyph-name="quotedblleft" unicode="&#x201c;" horiz-adv-x="333" 
d="M133 500h-83v99c0 30.667 5 55.167 15 73.5s26.667 36.833 50 55.5l26 -36c-16 -11.333 -28 -24 -36 -38s-11 -34 -9 -60h37v-94zM283 500h-83v99c0 30.667 5 55.167 15 73.5s26.667 36.833 50 55.5l26 -36c-16 -12 -28 -24.833 -36 -38.5s-11 -33.5 -9 -59.5h37v-94z
" />
    <glyph glyph-name="quotedblright" unicode="&#x201d;" horiz-adv-x="333" 
d="M200 728h83v-99c0 -30.667 -5 -55.167 -15 -73.5s-26.667 -36.833 -50 -55.5l-26 36c16 11.333 28 24 36 38s11 34 9 60h-37v94zM50 728h83v-99c0 -30.667 -5 -55.167 -15 -73.5s-26.667 -36.833 -50 -55.5l-26 36c16 12 28 24.833 36 38.5s11 33.5 9 59.5h-37v94z" />
    <glyph glyph-name="quotedblbase" unicode="&#x201e;" horiz-adv-x="330" 
d="M198 94h83v-99c0 -30.667 -5 -55.167 -15 -73.5s-26.667 -36.833 -50 -55.5l-26 36c16 11.333 28 24 36 38s11 34 9 60h-37v94zM48 94h83v-99c0 -30.667 -5 -55.167 -15 -73.5s-26.667 -36.833 -50 -55.5l-26 36c16 12 28 24.833 36 38.5s11 33.5 9 59.5h-37v94z" />
    <glyph glyph-name="dagger" unicode="&#x2020;" 
d="M193 705h58v-219h152v-52h-152v-604h-58v604h-152v52h152v219z" />
    <glyph glyph-name="daggerdbl" unicode="&#x2021;" 
d="M193 705h58v-196h152v-52h-152v-380h152v-52h-152v-195h-58v195h-152v52h152v380h-152v52h152v196z" />
    <glyph glyph-name="bullet" unicode="&#x2022;" horiz-adv-x="606" 
d="M303 472c33.333 0 62 -12 86 -36s36 -52.667 36 -86c0 -34 -12 -62.833 -36 -86.5s-52.667 -35.5 -86 -35.5s-62 11.833 -86 35.5s-36 52.5 -36 86.5s12 62.833 36 86.5s52.667 35.5 86 35.5z" />
    <glyph glyph-name="ellipsis" unicode="&#x2026;" horiz-adv-x="1000" 
d="M793 94h83v-94h-83v94zM459 94h83v-94h-83v94zM125 94h83v-94h-83v94z" />
    <glyph glyph-name="perthousand" unicode="&#x2030;" horiz-adv-x="1000" 
d="M699 153c0 -18.667 0.501953 -34.001 1.50195 -46.001s3.33301 -26.167 7 -42.5s10.167 -28.833 19.5 -37.5s21.666 -13 36.999 -13s27.833 4.83301 37.5 14.5s16.167 23.834 19.5 42.501s5.5 34.167 6.5 46.5s1.5 28.5 1.5 48.5c0 53.333 -4.16699 91.333 -12.5 114
s-25.5 34 -51.5 34c-26.667 0 -44.334 -12.333 -53.001 -37s-13 -66 -13 -124zM650.002 162.999c0 67.333 9.16699 116 27.5 146s48.833 45 91.5 45c39.333 0 67.333 -14.167 84 -42.5s25 -76.166 25 -143.499c0 -62 -8.66699 -109.833 -26 -143.5
s-46.666 -50.5 -87.999 -50.5c-42.667 0 -72.334 15.667 -89.001 47s-25 78.666 -25 141.999zM403.002 152.999c0 -18.667 0.501953 -34.001 1.50195 -46.001s3.33301 -26.167 7 -42.5s10.167 -28.833 19.5 -37.5s21.666 -13 36.999 -13s27.833 4.83301 37.5 14.5
s16.167 23.834 19.5 42.501s5.5 34.167 6.5 46.5s1.5 28.5 1.5 48.5c0 53.333 -4.16699 91.333 -12.5 114s-25.5 34 -51.5 34c-26.667 0 -44.334 -12.333 -53.001 -37s-13 -66 -13 -124zM354.004 162.998c0 67.333 9.16699 116 27.5 146s48.833 45 91.5 45
c39.333 0 67.333 -14.167 84 -42.5s25 -76.166 25 -143.499c0 -62 -8.66699 -109.833 -26 -143.5s-46.666 -50.5 -87.999 -50.5c-42.667 0 -72.334 15.667 -89.001 47s-25 78.666 -25 141.999zM73.0039 526.998c0 -18.667 0.501953 -34.001 1.50195 -46.001
s3.33301 -26.167 7 -42.5s10.167 -28.833 19.5 -37.5s21.666 -13 36.999 -13s27.833 4.83301 37.5 14.5s16.167 23.834 19.5 42.501s5.5 34.167 6.5 46.5s1.5 28.5 1.5 48.5c0 53.333 -4.16699 91.333 -12.5 114s-25.5 34 -51.5 34c-26.667 0 -44.334 -12.333 -53.001 -37
s-13 -66 -13 -124zM24.0059 536.997c0 67.333 9.16699 116 27.5 146s48.833 45 91.5 45c39.333 0 67.333 -14.167 84 -42.5s25 -76.166 25 -143.499c0 -62 -8.66699 -109.833 -26 -143.5s-46.666 -50.5 -87.999 -50.5c-42.667 0 -72.334 15.667 -89.001 47
s-25 78.666 -25 141.999zM428.006 715.997h44l-296 -743h-44z" />
    <glyph glyph-name="guilsinglleft" unicode="&#x2039;" horiz-adv-x="333" 
d="M213 478h44l-129 -220l129 -222h-44l-151 222z" />
    <glyph glyph-name="guilsinglright" unicode="&#x203a;" horiz-adv-x="333" 
d="M120 478l151 -220l-151 -222h-44l129 222l-129 220h44z" />
    <glyph glyph-name="Euro" unicode="&#x20ac;" 
d="M412 665v-59c-35.333 41.333 -77 62 -125 62c-50.667 0 -91 -21.333 -121 -64c-30.667 -42.667 -48.667 -103.667 -54 -183h236v-43h-238v-16c0 -19.333 0.333008 -31.666 1 -36.999h237v-43h-235c6 -77.333 24.333 -138 55 -182c30.667 -42.667 70 -64 118 -64
c52.667 0 94 18.667 124 56v-61c-30.667 -28.667 -71.667 -43 -123 -43c-70 0 -125.333 25.667 -166 77c-40 51.333 -63 123.666 -69 216.999h-51v43h49v53h-49v43h50c4.66699 95.333 27.667 168.333 69 219c40.667 50.667 97.667 76 171 76c42.667 0 83 -17 121 -51z" />
    <glyph glyph-name="trademark" unicode="&#x2122;" horiz-adv-x="722" 
d="M317 716h64l96 -325h2l102 325h64v-400h-40v354h-2l-111 -354h-29l-104 354h-2v-354h-40v400zM-15 716h286v-40h-121v-360h-47v360h-118v40z" />
    <glyph glyph-name=".null" horiz-adv-x="0" 
 />
    <glyph glyph-name="nonmarkingreturn" horiz-adv-x="333" 
 />
  </font>
</defs>
</svg>
